<svg width="533.333333" height="154.666667" xmlns="http://www.w3.org/2000/svg" version="1.1">
 <defs>
  <clipPath id="clip1">
   <path id="svg_1" d="m33.7206,77.74692l6.33203,0l0,6.33203l-6.33203,0l0,-6.33203zm0,0"/>
  </clipPath>
  <clipPath id="clip2">
   <path id="svg_2" d="m159.7206,99.07895l6.33203,0l0,6.33203l-6.33203,0l0,-6.33203zm0,0"/>
  </clipPath>
  <clipPath id="clip3">
   <path id="svg_3" d="m143.18154,55.74692l6.33593,0l0,6.33203l-6.33593,0l0,-6.33203zm0,0"/>
  </clipPath>
  <clipPath id="clip4">
   <path id="svg_4" d="m291.05263,99.07895l6.33203,0l0,6.33203l-6.33203,0l0,-6.33203zm0,0"/>
  </clipPath>
  <clipPath id="clip5">
   <path id="svg_5" d="m273.81826,56.57895l6.23437,0l0,6l-6.23437,0l0,-6zm0,0"/>
  </clipPath>
  <clipPath id="clip6">
   <path id="svg_6" d="m410.38466,99.07895l6.33594,0l0,6.33203l-6.33594,0l0,-6.33203zm0,0"/>
  </clipPath>
  <clipPath id="clip7">
   <path id="svg_7" d="m439.28701,56.57895l6.33203,0l0,6l-6.33203,0l0,-6zm0,0"/>
  </clipPath>
 </defs>
 <g>
  <title>Layer 1</title>
  <g id="surface1">
   <path id="svg_8" fill="rgb(40.000001%,74.901962%,100%)" fill-rule="nonzero" d="m1.19429,89.86328l110.71875,0l0,-25.19531l-110.71875,0l0,25.19531zm0,0"/>
   <path id="svg_9" stroke-miterlimit="10" stroke="rgb(0%,0%,0%)" stroke-linejoin="round" stroke-linecap="round" fill="none" d="m1.19439,64.66805l110.71872,0l0,25.1953l-110.71872,0l0,-25.1953zm0,0"/>
   <path id="svg_10" fill="rgb(0%,0%,0%)" fill-rule="nonzero" d="m27.46773,82.33984l-1.0625,0l0,-6.73046c-0.25,0.25 -0.58203,0.5 -1,0.75c-0.41797,0.23828 -0.78516,0.41015 -1.10547,0.51953l0,-1.01953c0.58594,-0.26172 1.09375,-0.58985 1.54297,-0.98047c0.4414,-0.39844 0.7539,-0.78907 0.9375,-1.16407l0.6875,0l0,8.625zm0,0"/>
   <g id="svg_11" clip-rule="nonzero" clip-path="url(#clip1)">
    <path id="svg_12" fill="rgb(0%,0%,0%)" fill-rule="nonzero" d="m36.67476,79.31641l2.375,-2.375c0.125,-0.14453 0.16797,-0.16797 0.16797,-0.25c0,-0.14453 -0.125,-0.25 -0.25,-0.25c-0.08203,0 -0.14453,0.04297 -0.25,0.16797l-2.39453,2.375l-2.39844,-2.375c-0.125,-0.14844 -0.16406,-0.16797 -0.25,-0.16797c-0.125,0 -0.25,0.10547 -0.25,0.25c0,0.08203 0.0625,0.14453 0.16797,0.25l2.375,2.375l-2.375,2.39453c-0.125,0.10547 -0.16797,0.1875 -0.16797,0.25c0,0.14844 0.125,0.25 0.25,0.25c0.08594,0 0.125,-0.01953 0.25,-0.16406l2.39844,-2.375l2.39453,2.375c0.10547,0.125 0.1875,0.16406 0.25,0.16406c0.14453,0 0.25,-0.10156 0.25,-0.25c0,-0.08203 -0.04297,-0.10156 -0.16797,-0.25l-2.375,-2.39453zm0,0"/>
    <path id="svg_13" fill="rgb(0%,0%,0%)" fill-rule="nonzero" d="m36.67476,79.31641l2.375,-2.375c0.125,-0.14453 0.16797,-0.16797 0.16797,-0.25c0,-0.14453 -0.125,-0.25 -0.25,-0.25c-0.08203,0 -0.14453,0.04297 -0.25,0.16797l-2.39453,2.375l-2.39844,-2.375c-0.125,-0.14844 -0.16406,-0.16797 -0.25,-0.16797c-0.125,0 -0.25,0.10547 -0.25,0.25c0,0.08203 0.0625,0.14453 0.16797,0.25l2.375,2.375l-2.375,2.39453c-0.125,0.10547 -0.16797,0.1875 -0.16797,0.25c0,0.14844 0.125,0.25 0.25,0.25c0.08594,0 0.125,-0.01953 0.25,-0.16406l2.39844,-2.375l2.39453,2.375c0.10547,0.125 0.1875,0.16406 0.25,0.16406c0.14453,0 0.25,-0.10156 0.25,-0.25c0,-0.08203 -0.04297,-0.10156 -0.16797,-0.25l-2.375,-2.39453zm0,0"/>
   </g>
   <path id="svg_14" fill="rgb(0%,0%,0%)" fill-rule="nonzero" d="m48.58882,82.33984l-1.0625,0l0,-6.73046c-0.25,0.25 -0.58594,0.5 -1,0.75c-0.41797,0.23828 -0.78906,0.41015 -1.10547,0.51953l0,-1.01953c0.58203,-0.26172 1.09375,-0.58985 1.54297,-0.98047c0.44141,-0.39844 0.75391,-0.78907 0.9375,-1.16407l0.6875,0l0,8.625zm0,0"/>
   <path id="svg_15" fill="rgb(0%,0%,0%)" fill-rule="nonzero" d="m57.2607,72.69141l-0.76954,0.27343c0.35547,0.47657 0.6875,1.03907 1,1.66407l0.73047,-0.33203c-0.27343,-0.5625 -0.58593,-1.08204 -0.96093,-1.60547zm5.89843,0c-0.29297,0.60547 -0.64843,1.125 -1.10547,1.5625l0.6875,0.39843c0.48047,-0.48046 0.875,-1.04296 1.1875,-1.66796l-0.76953,-0.29297zm-7.5,2.02343l0,0.78907l3.47657,0c-0.1875,0.41797 -0.4375,0.83593 -0.70704,1.21093l-3.45703,0l0,0.78907l2.85157,0c-0.83204,0.9375 -1.89454,1.71093 -3.1875,2.27343l0.48046,0.75c0.79297,-0.375 1.51954,-0.83593 2.16797,-1.35546l0,3.26953c0,0.625 0.35157,0.9375 1.08203,0.9375l4.4375,0c0.64454,0 1.0625,-0.10157 1.3125,-0.26953c0.25,-0.23047 0.41797,-0.8125 0.51954,-1.75l-0.85157,-0.26954c-0.0625,0.60157 -0.16797,1 -0.29297,1.22657c-0.10546,0.16797 -0.41796,0.27343 -0.91796,0.27343l-3.85157,0c-0.375,0 -0.5625,-0.14843 -0.5625,-0.41796l0,-2.70704l3.85157,0l0,0.89454c0,0.25 -0.16407,0.375 -0.47657,0.375c-0.5,0 -1.04297,-0.01954 -1.64843,-0.04297l0.1875,0.75c0.58593,0.02343 1.16796,0.04297 1.79296,0.04297c0.64454,-0.04297 0.98047,-0.33204 1,-0.89454l0,-1.625c0.60547,0.5 1.33204,0.97657 2.1875,1.4375l0.5625,-0.71093c-1.45703,-0.64453 -2.54296,-1.35157 -3.1875,-2.1875l2.83204,0l0,-0.78907l-5.83204,0c0.23047,-0.375 0.41797,-0.79296 0.625,-1.21093l4.54297,0l0,-0.78907l-4.25,0c0.20703,-0.64843 0.39453,-1.35546 0.51953,-2.10546l-0.85546,-0.10547c-0.125,0.79297 -0.3125,1.52343 -0.53907,2.21093l-3.8125,0zm3.22657,2.78907l2.66796,0c0.26954,0.41797 0.60547,0.8125 1.01954,1.1875l-4.75,0c0.375,-0.35157 0.73046,-0.75 1.0625,-1.1875zm0,0"/>
   <path id="svg_16" fill="rgb(0%,0%,0%)" fill-rule="nonzero" d="m67.03413,74.37891c0.58203,-0.0625 1.125,-0.16407 1.64453,-0.26953l0,1.70703l-1.76953,0l0,0.83593l1.72657,0c-0.41407,1.39454 -1.125,2.625 -2.08204,3.70704l0.35547,0.89453c0.72657,-0.9375 1.3125,-2.01953 1.76953,-3.1875l0,5.41797l0.8125,0l0,-5.48047c0.35547,0.48047 0.76954,1.14843 1.26954,1.98047l0.48046,-0.70704c-0.60546,-0.75 -1.16796,-1.41796 -1.75,-2.02343l0,-0.60157l1.48047,0l0,-0.83593l-1.48047,0l0,-1.89453c0.5,-0.125 0.98047,-0.25 1.41797,-0.41797l-0.3125,-0.8125c-1.0625,0.4375 -2.3125,0.71093 -3.73047,0.85547l0.16797,0.83203zm4.64453,-1.125l0,5.58593l5.1875,0l0,-5.58593l-5.1875,0zm4.33204,4.77343l-3.45704,0l0,-3.9375l3.45704,0l0,3.9375zm-3.28907,1.58204c-0.54297,1.33203 -1.21093,2.48046 -1.98047,3.4375l0.73047,0.51953c0.76953,-1.01953 1.45703,-2.20703 2.01953,-3.58203l-0.76953,-0.375zm2.9375,-0.0625l-0.6875,0.4375c0.83203,1.29296 1.51953,2.48046 2.01953,3.5625l0.73047,-0.51954c-0.48047,-0.98046 -1.16797,-2.14843 -2.0625,-3.48046zm0,0"/>
   <path id="svg_17" fill="rgb(0%,0%,0%)" fill-rule="nonzero" d="m82.0107,77.12891l0,0.77343l6.5,0l0,-0.77343l-6.5,0zm-0.85157,1.96093l0,0.78907l2.625,0c-0.83593,1.35547 -1.54297,2.1875 -2.0625,2.5c-0.0625,0.02343 -0.10547,0.0625 -0.1875,0.08593l0.1875,0.72657c2.26953,-0.14453 4.35157,-0.35157 6.25,-0.60157c0.25,0.28907 0.45703,0.60157 0.66407,0.91407l0.6875,-0.47657c-0.51954,-0.77343 -1.28907,-1.6875 -2.26954,-2.73046l-0.64453,0.39453c0.35157,0.41797 0.70703,0.8125 1.03907,1.21093c-1.53907,0.22657 -3.10157,0.39454 -4.6875,0.5c0.5625,-0.5 1.21093,-1.35546 1.9375,-2.52343l4.60546,0l0,-0.78907l-8.14453,0zm6.6875,-5.27343l0,1.39843l-7.0625,0l0,-1.39843l7.0625,0zm-7.0625,2.16797l7.89453,0l0,-2.98047l-8.73046,0l0,3.98047c-0.01954,2.41796 -0.4375,4.375 -1.26954,5.89453l0.625,0.58593c0.98047,-1.8125 1.48047,-3.98046 1.48047,-6.48046l0,-1zm0,0"/>
   <path id="svg_18" stroke-miterlimit="10" stroke="rgb(0%,0%,0%)" stroke-linejoin="round" stroke-linecap="round" fill="none" d="m125.34279,86.00007l114.6406,0l0,25.19921l-114.6406,0l0,-25.19921zm0,0"/>
   <path id="svg_19" fill="rgb(0%,0%,0%)" fill-rule="nonzero" d="m153.5771,103.67188l-1.0625,0l0,-6.73047c-0.25,0.25 -0.58203,0.5 -1,0.75c-0.41406,0.24218 -0.78515,0.41406 -1.10156,0.52343l0,-1.02343c0.58203,-0.25782 1.09375,-0.58594 1.53906,-0.97657c0.44531,-0.40234 0.75781,-0.79296 0.9375,-1.16796l0.6875,0l0,8.625zm0,0"/>
   <g id="svg_20" clip-rule="nonzero" clip-path="url(#clip2)">
    <path id="svg_21" fill="rgb(0%,0%,0%)" fill-rule="nonzero" d="m162.67476,100.64844l2.375,-2.375c0.125,-0.14453 0.16797,-0.16406 0.16797,-0.25c0,-0.14453 -0.125,-0.25 -0.25,-0.25c-0.08203,0 -0.14453,0.04297 -0.25,0.16797l-2.39453,2.375l-2.39844,-2.375c-0.125,-0.14453 -0.16406,-0.16797 -0.25,-0.16797c-0.125,0 -0.25,0.10547 -0.25,0.25c0,0.08594 0.0625,0.14844 0.16797,0.25l2.375,2.375l-2.375,2.39844c-0.125,0.10156 -0.16797,0.1875 -0.16797,0.25c0,0.14453 0.125,0.25 0.25,0.25c0.08594,0 0.125,-0.02344 0.25,-0.16797l2.39844,-2.375l2.39453,2.375c0.10547,0.125 0.1875,0.16797 0.25,0.16797c0.14453,0 0.25,-0.10547 0.25,-0.25c0,-0.08594 -0.04297,-0.10547 -0.16797,-0.25l-2.375,-2.39844zm0,0"/>
    <path id="svg_22" fill="rgb(0%,0%,0%)" fill-rule="nonzero" d="m162.67476,100.64844l2.375,-2.375c0.125,-0.14453 0.16797,-0.16406 0.16797,-0.25c0,-0.14453 -0.125,-0.25 -0.25,-0.25c-0.08203,0 -0.14453,0.04297 -0.25,0.16797l-2.39453,2.375l-2.39844,-2.375c-0.125,-0.14453 -0.16406,-0.16797 -0.25,-0.16797c-0.125,0 -0.25,0.10547 -0.25,0.25c0,0.08594 0.0625,0.14844 0.16797,0.25l2.375,2.375l-2.375,2.39844c-0.125,0.10156 -0.16797,0.1875 -0.16797,0.25c0,0.14453 0.125,0.25 0.25,0.25c0.08594,0 0.125,-0.02344 0.25,-0.16797l2.39844,-2.375l2.39453,2.375c0.10547,0.125 0.1875,0.16797 0.25,0.16797c0.14453,0 0.25,-0.10547 0.25,-0.25c0,-0.08594 -0.04297,-0.10547 -0.16797,-0.25l-2.375,-2.39844zm0,0"/>
   </g>
   <path id="svg_23" fill="rgb(0%,0%,0%)" fill-rule="nonzero" d="m174.6982,103.67188l-1.0625,0l0,-6.73047c-0.25,0.25 -0.58204,0.5 -1,0.75c-0.41797,0.24218 -0.78516,0.41406 -1.10547,0.52343l0,-1.02343c0.58593,-0.25782 1.09375,-0.58594 1.54297,-0.97657c0.4414,-0.40234 0.7539,-0.79296 0.9375,-1.16796l0.6875,0l0,8.625zm0,0"/>
   <path id="svg_24" fill="rgb(0%,0%,0%)" fill-rule="nonzero" d="m183.37398,94.02734l-0.77344,0.26954c0.35547,0.48046 0.6875,1.04296 1,1.66796l0.73047,-0.33593c-0.26953,-0.5625 -0.58203,-1.08203 -0.95703,-1.60157zm5.89453,0c-0.29297,0.60157 -0.64453,1.125 -1.10547,1.5625l0.6875,0.39454c0.48047,-0.48047 0.875,-1.04297 1.1875,-1.66797l-0.76953,-0.28907zm-7.5,2.01954l0,0.79296l3.48047,0c-0.1875,0.41407 -0.4375,0.83204 -0.71094,1.20704l-3.45703,0l0,0.79296l2.85547,0c-0.83594,0.9375 -1.89844,1.70704 -3.1875,2.26954l0.47656,0.75c0.79297,-0.375 1.52344,-0.83204 2.16797,-1.35547l0,3.27343c0,0.625 0.35547,0.9375 1.08203,0.9375l4.4375,0c0.64844,0 1.0625,-0.10546 1.3125,-0.27343c0.25,-0.22657 0.41797,-0.8125 0.52344,-1.75l-0.85547,-0.26953c-0.0625,0.60546 -0.16797,1 -0.29297,1.23046c-0.10156,0.16407 -0.41406,0.26954 -0.91406,0.26954l-3.85547,0c-0.375,0 -0.5625,-0.14454 -0.5625,-0.41797l0,-2.70703l3.85547,0l0,0.89453c0,0.25 -0.16797,0.375 -0.48047,0.375c-0.5,0 -1.04297,-0.01953 -1.64453,-0.03907l0.1875,0.75c0.58203,0.01954 1.16406,0.03907 1.78906,0.03907c0.64844,-0.03907 0.98047,-0.33203 1,-0.89453l0,-1.625c0.60547,0.5 1.33594,0.98046 2.1875,1.4375l0.5625,-0.70704c-1.45703,-0.64843 -2.53906,-1.35546 -3.1875,-2.1875l2.83594,0l0,-0.79296l-5.83594,0c0.23047,-0.375 0.41797,-0.79297 0.625,-1.20704l4.54297,0l0,-0.79296l-4.25,0c0.20703,-0.64454 0.39453,-1.35547 0.51953,-2.10547l-0.85156,-0.10157c-0.125,0.78907 -0.3125,1.51954 -0.54297,2.20704l-3.8125,0zm3.23047,2.79296l2.66406,0c0.27344,0.41407 0.60547,0.8125 1.02344,1.1875l-4.75,0c0.375,-0.35546 0.72656,-0.75 1.0625,-1.1875zm0,0"/>
   <path id="svg_25" fill="rgb(0%,0%,0%)" fill-rule="nonzero" d="m193.14351,95.71484c0.58203,-0.0625 1.125,-0.16796 1.64453,-0.27343l0,1.71093l-1.76953,0l0,0.83204l1.73047,0c-0.41797,1.39453 -1.125,2.625 -2.08594,3.70703l0.35547,0.89843c0.73047,-0.9375 1.3125,-2.02343 1.76953,-3.1875l0,5.41407l0.8125,0l0,-5.47657c0.35547,0.47657 0.77344,1.14454 1.27344,1.97657l0.47656,-0.70703c-0.60156,-0.75 -1.16406,-1.41797 -1.75,-2.01954l0,-0.60546l1.48047,0l0,-0.83204l-1.48047,0l0,-1.89843c0.5,-0.125 0.98047,-0.25 1.41797,-0.41407l-0.3125,-0.8125c-1.0625,0.4375 -2.3125,0.70704 -3.73047,0.85157l0.16797,0.83593zm4.64453,-1.125l0,5.58204l5.1875,0l0,-5.58204l-5.1875,0zm4.33594,4.76954l-3.46094,0l0,-3.9375l3.46094,0l0,3.9375zm-3.29297,1.58203c-0.54297,1.33593 -1.20703,2.48047 -1.98047,3.4375l0.73047,0.52343c0.76953,-1.02343 1.45703,-2.21093 2.01953,-3.58593l-0.76953,-0.375zm2.9375,-0.0625l-0.6875,0.4375c0.83203,1.29297 1.51953,2.48047 2.01953,3.5625l0.73047,-0.51953c-0.48047,-0.98047 -1.16797,-2.14454 -2.0625,-3.48047zm0,0"/>
   <path id="svg_26" fill="rgb(0%,0%,0%)" fill-rule="nonzero" d="m208.12398,98.46484l0,0.76954l6.5,0l0,-0.76954l-6.5,0zm-0.85547,1.95704l0,0.79296l2.625,0c-0.83203,1.35157 -1.54297,2.1875 -2.0625,2.5c-0.0625,0.01954 -0.10547,0.0625 -0.1875,0.08204l0.1875,0.73046c2.26953,-0.14843 4.35547,-0.35546 6.25,-0.60546c0.25,0.29296 0.45703,0.60546 0.66797,0.91796l0.6875,-0.48046c-0.52344,-0.76954 -1.29297,-1.6875 -2.27344,-2.73047l-0.64453,0.39843c0.35547,0.41407 0.70703,0.8125 1.04297,1.20704c-1.54297,0.23046 -3.10547,0.39453 -4.6875,0.5c0.5625,-0.5 1.20703,-1.35547 1.9375,-2.51954l4.60156,0l0,-0.79296l-8.14453,0zm6.6875,-5.26954l0,1.39454l-7.0625,0l0,-1.39454l7.0625,0zm-7.0625,2.16407l7.89453,0l0,-2.97657l-8.72656,0l0,3.97657c-0.02344,2.41797 -0.4375,4.375 -1.27344,5.89843l0.625,0.58204c0.98047,-1.8125 1.48047,-3.98047 1.48047,-6.48047l0,-1zm0,0"/>
   <path id="svg_27" fill="rgb(40.000001%,74.901962%,100%)" fill-rule="nonzero" d="m125.34273,68.53125l114.64062,0l0,-25.19922l-114.64062,0l0,25.19922zm0,0"/>
   <path id="svg_28" stroke-miterlimit="10" stroke="rgb(0%,0%,0%)" stroke-linejoin="round" stroke-linecap="round" fill="none" d="m125.34279,43.33211l114.6406,0l0,25.19922l-114.6406,0l0,-25.19922zm0,0"/>
   <path id="svg_29" fill="rgb(0%,0%,0%)" fill-rule="nonzero" d="m133.15132,58.32813l1.0625,-0.14454c0.125,0.59766 0.32422,1.03125 0.60547,1.29297c0.28906,0.26563 0.64844,0.39453 1.08203,0.39453c0.48438,0 0.89453,-0.16796 1.23047,-0.5c0.34375,-0.34375 0.51953,-0.77734 0.51953,-1.29296c0,-0.48438 -0.16016,-0.87891 -0.48047,-1.1875c-0.30469,-0.31641 -0.70312,-0.47657 -1.1875,-0.47657c-0.20703,0 -0.45703,0.03907 -0.75,0.125l0.125,-0.9375c0.07031,0.01563 0.125,0.01953 0.16797,0.01953c0.44141,0 0.84375,-0.11328 1.20703,-0.35546c0.35938,-0.23438 0.54297,-0.59375 0.54297,-1.08204c0,-0.38671 -0.13672,-0.70703 -0.39453,-0.95703c-0.26563,-0.25 -0.60547,-0.375 -1.02344,-0.375c-0.40625,0 -0.74219,0.13282 -1.01953,0.39453c-0.26562,0.25 -0.4375,0.63672 -0.51953,1.14454l-1.0625,-0.1875c0.13281,-0.70704 0.42578,-1.25391 0.875,-1.64454c0.45703,-0.38671 1.02344,-0.58203 1.70703,-0.58203c0.46875,0 0.90234,0.10157 1.29297,0.3125c0.39844,0.19532 0.70703,0.46875 0.91406,0.8125c0.21094,0.34766 0.3125,0.71875 0.3125,1.10157c0,0.375 -0.10156,0.71875 -0.3125,1.02343c-0.19531,0.30469 -0.48828,0.55078 -0.875,0.72657c0.51172,0.11718 0.90625,0.35546 1.1875,0.73046c0.27735,0.36329 0.41797,0.82422 0.41797,1.375c0,0.75 -0.28125,1.39063 -0.83203,1.91797c-0.54297,0.51563 -1.23047,0.76953 -2.0625,0.76953c-0.75,0 -1.375,-0.21875 -1.875,-0.66796c-0.5,-0.44141 -0.78906,-1.02344 -0.85547,-1.75zm0,0"/>
   <g id="svg_30" clip-rule="nonzero" clip-path="url(#clip3)">
    <path id="svg_31" fill="rgb(0%,0%,0%)" fill-rule="nonzero" d="m146.14351,57.31641l2.375,-2.375c0.125,-0.14453 0.16406,-0.16797 0.16406,-0.25c0,-0.14453 -0.125,-0.25 -0.25,-0.25c-0.08203,0 -0.14453,0.04297 -0.25,0.16797l-2.39453,2.375l-2.39453,-2.375c-0.125,-0.14844 -0.16797,-0.16797 -0.25,-0.16797c-0.125,0 -0.25,0.10547 -0.25,0.25c0,0.08203 0.0625,0.14453 0.16406,0.25l2.375,2.375l-2.375,2.39453c-0.125,0.10547 -0.16406,0.1875 -0.16406,0.25c0,0.14844 0.125,0.25 0.25,0.25c0.08203,0 0.125,-0.01953 0.25,-0.16406l2.39453,-2.375l2.39453,2.375c0.10547,0.125 0.1875,0.16406 0.25,0.16406c0.14844,0 0.25,-0.10156 0.25,-0.25c0,-0.08203 -0.03906,-0.10156 -0.16406,-0.25l-2.375,-2.39453zm0,0"/>
    <path id="svg_32" fill="rgb(0%,0%,0%)" fill-rule="nonzero" d="m146.14351,57.31641l2.375,-2.375c0.125,-0.14453 0.16406,-0.16797 0.16406,-0.25c0,-0.14453 -0.125,-0.25 -0.25,-0.25c-0.08203,0 -0.14453,0.04297 -0.25,0.16797l-2.39453,2.375l-2.39453,-2.375c-0.125,-0.14844 -0.16797,-0.16797 -0.25,-0.16797c-0.125,0 -0.25,0.10547 -0.25,0.25c0,0.08203 0.0625,0.14453 0.16406,0.25l2.375,2.375l-2.375,2.39453c-0.125,0.10547 -0.16406,0.1875 -0.16406,0.25c0,0.14844 0.125,0.25 0.25,0.25c0.08203,0 0.125,-0.01953 0.25,-0.16406l2.39453,-2.375l2.39453,2.375c0.10547,0.125 0.1875,0.16406 0.25,0.16406c0.14844,0 0.25,-0.10156 0.25,-0.25c0,-0.08203 -0.03906,-0.10156 -0.16406,-0.25l-2.375,-2.39453zm0,0"/>
   </g>
   <path id="svg_33" fill="rgb(0%,0%,0%)" fill-rule="nonzero" d="m153.15913,58.32813l1.0625,-0.14454c0.125,0.59766 0.32422,1.03125 0.60547,1.29297c0.28906,0.26563 0.64844,0.39453 1.08203,0.39453c0.48438,0 0.89453,-0.16796 1.23047,-0.5c0.34375,-0.34375 0.51953,-0.77734 0.51953,-1.29296c0,-0.48438 -0.16015,-0.87891 -0.48047,-1.1875c-0.30468,-0.31641 -0.70312,-0.47657 -1.1875,-0.47657c-0.20703,0 -0.45703,0.03907 -0.75,0.125l0.125,-0.9375c0.07032,0.01563 0.125,0.01953 0.16797,0.01953c0.44141,0 0.84375,-0.11328 1.20703,-0.35546c0.35938,-0.23438 0.54297,-0.59375 0.54297,-1.08204c0,-0.38671 -0.13672,-0.70703 -0.39453,-0.95703c-0.26562,-0.25 -0.60547,-0.375 -1.02344,-0.375c-0.40625,0 -0.74218,0.13282 -1.01953,0.39453c-0.26562,0.25 -0.4375,0.63672 -0.51953,1.14454l-1.0625,-0.1875c0.13281,-0.70704 0.42578,-1.25391 0.875,-1.64454c0.45703,-0.38671 1.02344,-0.58203 1.70703,-0.58203c0.46875,0 0.90235,0.10157 1.29297,0.3125c0.39844,0.19532 0.70703,0.46875 0.91406,0.8125c0.21094,0.34766 0.3125,0.71875 0.3125,1.10157c0,0.375 -0.10156,0.71875 -0.3125,1.02343c-0.19531,0.30469 -0.48828,0.55078 -0.875,0.72657c0.51172,0.11718 0.90625,0.35546 1.1875,0.73046c0.27735,0.36329 0.41797,0.82422 0.41797,1.375c0,0.75 -0.28125,1.39063 -0.83203,1.91797c-0.54297,0.51563 -1.23047,0.76953 -2.0625,0.76953c-0.75,0 -1.375,-0.21875 -1.875,-0.66796c-0.5,-0.44141 -0.78906,-1.02344 -0.85547,-1.75zm0,0"/>
   <path id="svg_34" fill="rgb(0%,0%,0%)" fill-rule="nonzero" d="m162.47945,50.95313l-0.76954,0.27343c0.35157,0.47657 0.6875,1.03907 1,1.66407l0.72657,-0.33204c-0.26953,-0.5625 -0.58203,-1.08203 -0.95703,-1.60546zm5.89453,0c-0.28907,0.60546 -0.64453,1.125 -1.10157,1.5625l0.6875,0.39843c0.47657,-0.48047 0.875,-1.04297 1.1875,-1.66797l-0.77343,-0.29296zm-7.5,2.02343l0,0.78907l3.48047,0c-0.1875,0.41796 -0.4375,0.83593 -0.70704,1.21093l-3.46093,0l0,0.78907l2.85547,0c-0.83204,0.9375 -1.89454,1.71093 -3.1875,2.27343l0.48046,0.75c0.78907,-0.375 1.51954,-0.83593 2.16407,-1.35547l0,3.26954c0,0.625 0.35547,0.9375 1.08593,0.9375l4.4375,0c0.64454,0 1.0625,-0.10157 1.3125,-0.26954c0.25,-0.23046 0.41407,-0.8125 0.51954,-1.75l-0.85547,-0.26953c-0.0625,0.60157 -0.16407,1 -0.28907,1.22657c-0.10546,0.16796 -0.41796,0.27343 -0.91796,0.27343l-3.85547,0c-0.375,0 -0.5625,-0.14843 -0.5625,-0.41797l0,-2.70703l3.85547,0l0,0.89453c0,0.25 -0.16797,0.375 -0.48047,0.375c-0.5,0 -1.03907,-0.01953 -1.64453,-0.04296l0.1875,0.75c0.58203,0.02343 1.16796,0.04296 1.79296,0.04296c0.64454,-0.04296 0.97657,-0.33203 1,-0.89453l0,-1.625c0.60157,0.5 1.33204,0.97657 2.1875,1.4375l0.5625,-0.71093c-1.46093,-0.64454 -2.54296,-1.35157 -3.1875,-2.1875l2.83204,0l0,-0.78907l-5.83204,0c0.22657,-0.375 0.41407,-0.79297 0.625,-1.21093l4.53907,0l0,-0.78907l-4.25,0c0.21093,-0.64843 0.39843,-1.35547 0.52343,-2.10547l-0.85546,-0.10546c-0.125,0.79296 -0.3125,1.52343 -0.54297,2.21093l-3.8125,0zm3.23047,2.78907l2.66796,0c0.26954,0.41796 0.60157,0.8125 1.01954,1.1875l-4.75,0c0.375,-0.35157 0.73046,-0.75 1.0625,-1.1875zm0,0"/>
   <path id="svg_35" fill="rgb(0%,0%,0%)" fill-rule="nonzero" d="m172.24898,52.64063c0.58593,-0.0625 1.125,-0.16407 1.64843,-0.26954l0,1.70704l-1.77343,0l0,0.83593l1.73047,0c-0.41797,1.39453 -1.125,2.625 -2.08204,3.70703l0.35157,0.89454c0.73047,-0.9375 1.3125,-2.01954 1.77343,-3.1875l0,5.41796l0.8125,0l0,-5.48046c0.35157,0.48046 0.76954,1.14843 1.26954,1.98046l0.48046,-0.70703c-0.60546,-0.75 -1.16796,-1.41797 -1.75,-2.02343l0,-0.60157l1.47657,0l0,-0.83593l-1.47657,0l0,-1.89454c0.5,-0.125 0.97657,-0.25 1.41407,-0.41796l-0.3125,-0.8125c-1.0625,0.4375 -2.3125,0.71093 -3.72657,0.85546l0.16407,0.83204zm4.64843,-1.125l0,5.58593l5.1875,0l0,-5.58593l-5.1875,0zm4.33204,4.77343l-3.45704,0l0,-3.9375l3.45704,0l0,3.9375zm-3.29297,1.58203c-0.53907,1.33204 -1.20703,2.48047 -1.97657,3.4375l0.72657,0.51954c0.77343,-1.01954 1.46093,-2.20704 2.02343,-3.58204l-0.77343,-0.375zm2.9375,-0.0625l-0.6875,0.4375c0.83593,1.29297 1.52343,2.48047 2.02343,3.5625l0.72657,-0.51953c-0.47657,-0.98047 -1.16407,-2.14843 -2.0625,-3.48047zm0,0"/>
   <path id="svg_36" fill="rgb(0%,0%,0%)" fill-rule="nonzero" d="m187.22945,55.39063l0,0.77343l6.5,0l0,-0.77343l-6.5,0zm-0.85547,1.96093l0,0.78907l2.625,0c-0.83203,1.35546 -1.53907,2.1875 -2.0625,2.5c-0.0625,0.02343 -0.10157,0.0625 -0.1875,0.08593l0.1875,0.72657c2.27343,-0.14454 4.35547,-0.35157 6.25,-0.60157c0.25,0.28907 0.46093,0.60157 0.66797,0.91407l0.6875,-0.47657c-0.51954,-0.77343 -1.29297,-1.6875 -2.26954,-2.73047l-0.64843,0.39454c0.35547,0.41796 0.71093,0.8125 1.04297,1.21093c-1.54297,0.22657 -3.10547,0.39453 -4.6875,0.5c0.5625,-0.5 1.20703,-1.35547 1.9375,-2.52343l4.60546,0l0,-0.78907l-8.14843,0zm6.6875,-5.27343l0,1.39843l-7.0625,0l0,-1.39843l7.0625,0zm-7.0625,2.16796l7.89843,0l0,-2.98046l-8.73046,0l0,3.98046c-0.01954,2.41797 -0.4375,4.375 -1.26954,5.89454l0.625,0.58593c0.97657,-1.8125 1.47657,-3.98047 1.47657,-6.48047l0,-1zm0,0"/>
   <path id="svg_37" fill="rgb(0%,0%,0%)" fill-rule="nonzero" d="m196.39741,60.60156l0,-1.21093l1.20704,0l0,1.21093c0,0.44141 -0.08204,0.79688 -0.25,1.0625c-0.15625,0.27344 -0.39454,0.48828 -0.73047,0.64453l-0.28907,-0.45703c0.21875,-0.10156 0.37891,-0.24609 0.47657,-0.4375c0.10937,-0.18359 0.17187,-0.45312 0.1875,-0.8125l-0.60157,0zm0,0"/>
   <path id="svg_38" fill="rgb(0%,0%,0%)" fill-rule="nonzero" d="m206.37788,51.68359l0,0.75l2.97657,0c-0.03907,0.25 -0.08204,0.51954 -0.125,0.79297l-2.14454,0l0,5.53907l-1.125,0l0,0.77343l7.60547,0l0,-0.77343l-1.10547,0l0,-5.53907l-2.41796,0c0.04296,-0.25 0.08593,-0.52343 0.125,-0.79297l2.98046,0l0,-0.75l-2.875,0c0.01954,-0.26953 0.0625,-0.51953 0.08204,-0.8125l-0.83204,-0.125c-0.04296,0.3125 -0.0625,0.625 -0.08203,0.9375l-3.0625,0zm1.51953,7.08204l0,-0.78907l3.75,0l0,0.78907l-3.75,0zm0,-1.41407l0,-0.73047l3.75,0l0,0.73047l-3.75,0zm0,-1.35547l0,-0.73046l3.75,0l0,0.73046l-3.75,0zm0,-1.33203l0,-0.75l3.75,0l0,0.75l-3.75,0zm3.20704,5.03907l-0.53907,0.48046c0.8125,0.48047 1.60157,1.01954 2.3125,1.66797l0.53907,-0.60547c-0.72657,-0.60546 -1.5,-1.10546 -2.3125,-1.54296zm-2.66407,-0.01954c-0.6875,0.58204 -1.52343,1.08204 -2.52343,1.51954l0.52343,0.64843c1.01953,-0.48047 1.89453,-1.02343 2.58203,-1.64843l-0.58203,-0.51954zm-5.83593,-5.9375l0,0.8125l1.33593,0l0,4c-0.48047,0.10547 -0.96093,0.20704 -1.4375,0.3125l0.22657,0.83204c1.14843,-0.26954 2.25,-0.625 3.25,-1.01954l0,-0.85546c-0.39454,0.16796 -0.78907,0.3125 -1.20704,0.46093l0,-3.73047l1.23047,0l0,-0.8125l-1.23047,0l0,-2.89453l-0.83203,0l0,2.89453l-1.33593,0zm0,0"/>
   <path id="svg_39" fill="rgb(0%,0%,0%)" fill-rule="nonzero" d="m219.97945,50.74609l-0.91407,0.14454c0.25,0.41796 0.45703,0.85546 0.64453,1.33593l-4.64453,0l0,0.8125l3.4375,0c-0.98047,1.4375 -1.77343,2.33203 -2.35547,2.66407c-0.0625,0.02343 -0.125,0.04296 -0.20703,0.0625l0.20703,0.79296c2.48047,-0.125 4.79297,-0.3125 6.91797,-0.54296c0.3125,0.4375 0.58203,0.875 0.83203,1.3125l0.73047,-0.5c-0.5625,-0.91407 -1.35547,-1.97657 -2.375,-3.20704l-0.6875,0.4375c0.35157,0.41797 0.6875,0.83204 1,1.26954c-1.75,0.1875 -3.52343,0.33593 -5.27343,0.4375c0.60546,-0.53907 1.3125,-1.45704 2.10546,-2.72657l5.54297,0l0,-0.8125l-4.35547,0c-0.20703,-0.5625 -0.39453,-1.04297 -0.60546,-1.48047zm-2.0625,6.25c-0.0625,1.23047 -0.33204,2.125 -0.78907,2.66797c-0.46093,0.5625 -1.25,1.03907 -2.35547,1.4375l0.54297,0.6875c1.22657,-0.5 2.08203,-1.08593 2.60157,-1.75c0.48046,-0.64843 0.77343,-1.64843 0.85546,-3.04297l-0.85546,0zm5.85546,4.60547c0.4375,0 0.76954,-0.10547 1,-0.3125c0.25,-0.25 0.41797,-0.98047 0.54297,-2.21093l-0.79297,-0.22657c-0.0625,1 -0.20703,1.60157 -0.39453,1.76953c-0.14843,0.10547 -0.35547,0.16797 -0.58593,0.16797l-1.39454,0c-0.41796,0 -0.625,-0.1875 -0.625,-0.54297l0,-3.39453l-0.85546,0l0,3.53907c0,0.8125 0.41796,1.21093 1.25,1.21093l1.85546,0zm0,0"/>
   <path id="svg_40" fill="rgb(0%,0%,0%)" fill-rule="nonzero" d="m230.47945,60.60156l-1.0625,0l0,-6.73047c-0.25,0.25 -0.58204,0.5 -1,0.75c-0.41407,0.23829 -0.78516,0.41016 -1.10157,0.51954l0,-1.01954c0.58203,-0.26171 1.09375,-0.58984 1.53907,-0.98046c0.44531,-0.39844 0.75781,-0.78907 0.9375,-1.16407l0.6875,0l0,8.625zm0,0"/>
   <path id="svg_41" stroke-miterlimit="10" stroke="rgb(0%,0%,0%)" stroke-linejoin="round" stroke-linecap="round" fill="none" d="m182.6631,86.00007l0,-9.59765"/>
   <path id="svg_42" stroke-miterlimit="10" stroke="rgb(0%,0%,0%)" fill="none" d="m182.6631,71.06648l0,5.33595m-2,0l2,-5.33595l2,5.33595"/>
   <path id="svg_43" stroke-miterlimit="10" stroke="rgb(0%,0%,0%)" stroke-linejoin="round" stroke-linecap="round" fill="none" d="m256.53027,86.00007l114.6406,0l0,25.19921l-114.6406,0l0,-25.19921zm0,0"/>
   <path id="svg_44" fill="rgb(0%,0%,0%)" fill-rule="nonzero" d="m284.7646,103.67188l-1.0625,0l0,-6.73047c-0.25,0.25 -0.58203,0.5 -1,0.75c-0.41406,0.24218 -0.78515,0.41406 -1.10156,0.52343l0,-1.02343c0.58203,-0.25782 1.09375,-0.58594 1.53906,-0.97657c0.44531,-0.40234 0.75781,-0.79296 0.9375,-1.16796l0.6875,0l0,8.625zm0,0"/>
   <g id="svg_45" clip-rule="nonzero" clip-path="url(#clip4)">
    <path id="svg_46" fill="rgb(0%,0%,0%)" fill-rule="nonzero" d="m294.0107,100.64844l2.375,-2.375c0.125,-0.14453 0.16406,-0.16406 0.16406,-0.25c0,-0.14453 -0.125,-0.25 -0.25,-0.25c-0.08203,0 -0.14453,0.04297 -0.25,0.16797l-2.39453,2.375l-2.39453,-2.375c-0.125,-0.14453 -0.16797,-0.16797 -0.25,-0.16797c-0.125,0 -0.25,0.10547 -0.25,0.25c0,0.08594 0.0625,0.14844 0.16406,0.25l2.375,2.375l-2.375,2.39844c-0.125,0.10156 -0.16406,0.1875 -0.16406,0.25c0,0.14453 0.125,0.25 0.25,0.25c0.08203,0 0.125,-0.02344 0.25,-0.16797l2.39453,-2.375l2.39453,2.375c0.10547,0.125 0.1875,0.16797 0.25,0.16797c0.14844,0 0.25,-0.10547 0.25,-0.25c0,-0.08594 -0.03906,-0.10547 -0.16406,-0.25l-2.375,-2.39844zm0,0"/>
    <path id="svg_47" fill="rgb(0%,0%,0%)" fill-rule="nonzero" d="m294.0107,100.64844l2.375,-2.375c0.125,-0.14453 0.16406,-0.16406 0.16406,-0.25c0,-0.14453 -0.125,-0.25 -0.25,-0.25c-0.08203,0 -0.14453,0.04297 -0.25,0.16797l-2.39453,2.375l-2.39453,-2.375c-0.125,-0.14453 -0.16797,-0.16797 -0.25,-0.16797c-0.125,0 -0.25,0.10547 -0.25,0.25c0,0.08594 0.0625,0.14844 0.16406,0.25l2.375,2.375l-2.375,2.39844c-0.125,0.10156 -0.16406,0.1875 -0.16406,0.25c0,0.14453 0.125,0.25 0.25,0.25c0.08203,0 0.125,-0.02344 0.25,-0.16797l2.39453,-2.375l2.39453,2.375c0.10547,0.125 0.1875,0.16797 0.25,0.16797c0.14844,0 0.25,-0.10547 0.25,-0.25c0,-0.08594 -0.03906,-0.10547 -0.16406,-0.25l-2.375,-2.39844zm0,0"/>
   </g>
   <path id="svg_48" fill="rgb(0%,0%,0%)" fill-rule="nonzero" d="m305.8857,103.67188l-1.0625,0l0,-6.73047c-0.25,0.25 -0.58204,0.5 -1,0.75c-0.41797,0.24218 -0.78516,0.41406 -1.10547,0.52343l0,-1.02343c0.58593,-0.25782 1.09375,-0.58594 1.54297,-0.97657c0.4414,-0.40234 0.7539,-0.79296 0.9375,-1.16796l0.6875,0l0,8.625zm0,0"/>
   <path id="svg_49" fill="rgb(0%,0%,0%)" fill-rule="nonzero" d="m314.56148,94.02734l-0.77344,0.26954c0.35547,0.48046 0.6875,1.04296 1,1.66796l0.73047,-0.33593c-0.26953,-0.5625 -0.58203,-1.08203 -0.95703,-1.60157zm5.89453,0c-0.29297,0.60157 -0.64453,1.125 -1.10547,1.5625l0.6875,0.39454c0.48047,-0.48047 0.875,-1.04297 1.1875,-1.66797l-0.76953,-0.28907zm-7.5,2.01954l0,0.79296l3.48047,0c-0.1875,0.41407 -0.4375,0.83204 -0.71094,1.20704l-3.45703,0l0,0.79296l2.85547,0c-0.83594,0.9375 -1.89844,1.70704 -3.1875,2.26954l0.47656,0.75c0.79297,-0.375 1.52344,-0.83204 2.16797,-1.35547l0,3.27343c0,0.625 0.35547,0.9375 1.08203,0.9375l4.4375,0c0.64844,0 1.0625,-0.10546 1.3125,-0.27343c0.25,-0.22657 0.41797,-0.8125 0.52344,-1.75l-0.85547,-0.26953c-0.0625,0.60546 -0.16797,1 -0.29297,1.23046c-0.10156,0.16407 -0.41406,0.26954 -0.91406,0.26954l-3.85547,0c-0.375,0 -0.5625,-0.14454 -0.5625,-0.41797l0,-2.70703l3.85547,0l0,0.89453c0,0.25 -0.16797,0.375 -0.48047,0.375c-0.5,0 -1.04297,-0.01953 -1.64453,-0.03907l0.1875,0.75c0.58203,0.01954 1.16406,0.03907 1.78906,0.03907c0.64844,-0.03907 0.98047,-0.33203 1,-0.89453l0,-1.625c0.60547,0.5 1.33594,0.98046 2.1875,1.4375l0.5625,-0.70704c-1.45703,-0.64843 -2.53906,-1.35546 -3.1875,-2.1875l2.83594,0l0,-0.79296l-5.83594,0c0.23047,-0.375 0.41797,-0.79297 0.625,-1.20704l4.54297,0l0,-0.79296l-4.25,0c0.20703,-0.64454 0.39453,-1.35547 0.51953,-2.10547l-0.85156,-0.10157c-0.125,0.78907 -0.3125,1.51954 -0.54297,2.20704l-3.8125,0zm3.23047,2.79296l2.66406,0c0.27344,0.41407 0.60547,0.8125 1.02344,1.1875l-4.75,0c0.375,-0.35546 0.72656,-0.75 1.0625,-1.1875zm0,0"/>
   <path id="svg_50" fill="rgb(0%,0%,0%)" fill-rule="nonzero" d="m324.33101,95.71484c0.58203,-0.0625 1.125,-0.16796 1.64453,-0.27343l0,1.71093l-1.76953,0l0,0.83204l1.73047,0c-0.41797,1.39453 -1.125,2.625 -2.08594,3.70703l0.35547,0.89843c0.73047,-0.9375 1.3125,-2.02343 1.76953,-3.1875l0,5.41407l0.8125,0l0,-5.47657c0.35547,0.47657 0.77344,1.14454 1.27344,1.97657l0.47656,-0.70703c-0.60156,-0.75 -1.16406,-1.41797 -1.75,-2.01954l0,-0.60546l1.48047,0l0,-0.83204l-1.48047,0l0,-1.89843c0.5,-0.125 0.98047,-0.25 1.41797,-0.41407l-0.3125,-0.8125c-1.0625,0.4375 -2.3125,0.70704 -3.73047,0.85157l0.16797,0.83593zm4.64453,-1.125l0,5.58204l5.1875,0l0,-5.58204l-5.1875,0zm4.33594,4.76954l-3.46094,0l0,-3.9375l3.46094,0l0,3.9375zm-3.29297,1.58203c-0.54297,1.33593 -1.20703,2.48047 -1.98047,3.4375l0.73047,0.52343c0.76953,-1.02343 1.45703,-2.21093 2.01953,-3.58593l-0.76953,-0.375zm2.9375,-0.0625l-0.6875,0.4375c0.83203,1.29297 1.51953,2.48047 2.01953,3.5625l0.73047,-0.51953c-0.48047,-0.98047 -1.16797,-2.14454 -2.0625,-3.48047zm0,0"/>
   <path id="svg_51" fill="rgb(0%,0%,0%)" fill-rule="nonzero" d="m339.31148,98.46484l0,0.76954l6.5,0l0,-0.76954l-6.5,0zm-0.85547,1.95704l0,0.79296l2.625,0c-0.83203,1.35157 -1.54297,2.1875 -2.0625,2.5c-0.0625,0.01954 -0.10547,0.0625 -0.1875,0.08204l0.1875,0.73046c2.26953,-0.14843 4.35547,-0.35546 6.25,-0.60546c0.25,0.29296 0.45703,0.60546 0.66797,0.91796l0.6875,-0.48046c-0.52344,-0.76954 -1.29297,-1.6875 -2.27344,-2.73047l-0.64453,0.39843c0.35547,0.41407 0.70703,0.8125 1.04297,1.20704c-1.54297,0.23046 -3.10547,0.39453 -4.6875,0.5c0.5625,-0.5 1.20703,-1.35547 1.9375,-2.51954l4.60156,0l0,-0.79296l-8.14453,0zm6.6875,-5.26954l0,1.39454l-7.0625,0l0,-1.39454l7.0625,0zm-7.0625,2.16407l7.89453,0l0,-2.97657l-8.72656,0l0,3.97657c-0.02344,2.41797 -0.4375,4.375 -1.27344,5.89843l0.625,0.58204c0.98047,-1.8125 1.48047,-3.98047 1.48047,-6.48047l0,-1zm0,0"/>
   <path id="svg_52" fill="rgb(40.000001%,74.901962%,100%)" fill-rule="nonzero" d="m256.53023,68.53125l114.64062,0l0,-25.19922l-114.64062,0l0,25.19922zm0,0"/>
   <path id="svg_53" stroke-miterlimit="10" stroke="rgb(0%,0%,0%)" stroke-linejoin="round" stroke-linecap="round" fill="none" d="m256.53027,43.33211l114.6406,0l0,25.19922l-114.6406,0l0,-25.19922zm0,0"/>
   <path id="svg_54" fill="rgb(0%,0%,0%)" fill-rule="nonzero" d="m263.78413,58.75391l1.10157,-0.10157c0.08593,0.53907 0.27343,0.95313 0.5625,1.22657c0.30468,0.26562 0.66796,0.39843 1.08593,0.39843c0.50782,0 0.94141,-0.1875 1.28907,-0.5625c0.35937,-0.38671 0.54296,-0.89843 0.54296,-1.52343c0,-0.60938 -0.17578,-1.08594 -0.51953,-1.4375c-0.33593,-0.34375 -0.77343,-0.51953 -1.3125,-0.51953c-0.35156,0 -0.66406,0.08203 -0.9375,0.25c-0.26562,0.15625 -0.48047,0.34765 -0.64843,0.58203l-0.97657,-0.125l0.83203,-4.41407l4.26954,0l0,1.01954l-3.4375,0l-0.45704,2.29296c0.51172,-0.34375 1.05079,-0.52343 1.625,-0.52343c0.75,0 1.37891,0.26172 1.89454,0.77343c0.51171,0.51563 0.77343,1.17969 0.77343,2c0,0.78125 -0.22656,1.45313 -0.66797,2.01954c-0.55859,0.69921 -1.3125,1.04296 -2.26953,1.04296c-0.78125,0 -1.41797,-0.21484 -1.91797,-0.64843c-0.48828,-0.44141 -0.76562,-1.02344 -0.83203,-1.75zm0,0"/>
   <g id="svg_55" clip-rule="nonzero" clip-path="url(#clip5)">
    <path id="svg_56" fill="rgb(0%,0%,0%)" fill-rule="nonzero" d="m276.77241,57.98438l2.375,-2.375c0.125,-0.14844 0.16797,-0.16797 0.16797,-0.25c0,-0.14844 -0.125,-0.25 -0.25,-0.25c-0.08203,0 -0.14453,0.03906 -0.25,0.16406l-2.39453,2.375l-2.39844,-2.375c-0.125,-0.14453 -0.16406,-0.16406 -0.25,-0.16406c-0.125,0 -0.25,0.10156 -0.25,0.25c0,0.08203 0.0625,0.14453 0.16797,0.25l2.375,2.375l-2.375,2.39453c-0.125,0.10547 -0.16797,0.1875 -0.16797,0.25c0,0.14453 0.125,0.25 0.25,0.25c0.08594,0 0.125,-0.01953 0.25,-0.16797l2.39844,-2.375l2.39453,2.375c0.10547,0.125 0.1875,0.16797 0.25,0.16797c0.14453,0 0.25,-0.10547 0.25,-0.25c0,-0.08203 -0.04297,-0.10547 -0.16797,-0.25l-2.375,-2.39453zm0,0"/>
    <path id="svg_57" fill="rgb(0%,0%,0%)" fill-rule="nonzero" d="m276.77241,57.98438l2.375,-2.375c0.125,-0.14844 0.16797,-0.16797 0.16797,-0.25c0,-0.14844 -0.125,-0.25 -0.25,-0.25c-0.08203,0 -0.14453,0.03906 -0.25,0.16406l-2.39453,2.375l-2.39844,-2.375c-0.125,-0.14453 -0.16406,-0.16406 -0.25,-0.16406c-0.125,0 -0.25,0.10156 -0.25,0.25c0,0.08203 0.0625,0.14453 0.16797,0.25l2.375,2.375l-2.375,2.39453c-0.125,0.10547 -0.16797,0.1875 -0.16797,0.25c0,0.14453 0.125,0.25 0.25,0.25c0.08594,0 0.125,-0.01953 0.25,-0.16797l2.39844,-2.375l2.39453,2.375c0.10547,0.125 0.1875,0.16797 0.25,0.16797c0.14453,0 0.25,-0.10547 0.25,-0.25c0,-0.08203 -0.04297,-0.10547 -0.16797,-0.25l-2.375,-2.39453zm0,0"/>
   </g>
   <path id="svg_58" fill="rgb(0%,0%,0%)" fill-rule="nonzero" d="m284.90132,58.75391l1.10547,-0.10157c0.08203,0.53907 0.26953,0.95313 0.5625,1.22657c0.30078,0.26562 0.66797,0.39843 1.08203,0.39843c0.51172,0 0.94531,-0.1875 1.29297,-0.5625c0.35937,-0.38671 0.54297,-0.89843 0.54297,-1.52343c0,-0.60938 -0.17969,-1.08594 -0.52344,-1.4375c-0.33203,-0.34375 -0.76953,-0.51953 -1.3125,-0.51953c-0.34766,0 -0.66016,0.08203 -0.9375,0.25c-0.26562,0.15625 -0.47656,0.34765 -0.64453,0.58203l-0.98047,-0.125l0.83594,-4.41407l4.26953,0l0,1.01954l-3.4375,0l-0.45703,2.29296c0.50781,-0.34375 1.05078,-0.52343 1.625,-0.52343c0.75,0 1.3789,0.26172 1.89453,0.77343c0.51172,0.51563 0.76953,1.17969 0.76953,2c0,0.78125 -0.22266,1.45313 -0.66406,2.01954c-0.5586,0.69921 -1.3125,1.04296 -2.27344,1.04296c-0.78125,0 -1.41406,-0.21484 -1.91406,-0.64843c-0.49219,-0.44141 -0.76563,-1.02344 -0.83594,-1.75zm0,0"/>
   <path id="svg_59" fill="rgb(0%,0%,0%)" fill-rule="nonzero" d="m294.22163,51.35938l-0.76953,0.26953c0.35547,0.48047 0.6875,1.04297 1,1.66797l0.73047,-0.33204c-0.27344,-0.5625 -0.58594,-1.08593 -0.96094,-1.60546zm5.89844,0c-0.29297,0.60546 -0.64844,1.125 -1.10547,1.5625l0.6875,0.39453c0.48047,-0.47657 0.875,-1.03907 1.1875,-1.66407l-0.76953,-0.29296zm-7.5,2.01953l0,0.79297l3.47656,0c-0.1875,0.41796 -0.4375,0.83203 -0.70703,1.20703l-3.45703,0l0,0.79297l2.85156,0c-0.83203,0.9375 -1.89453,1.70703 -3.1875,2.26953l0.48047,0.75c0.79297,-0.375 1.51953,-0.83203 2.16797,-1.35157l0,3.26954c0,0.625 0.35156,0.9375 1.08203,0.9375l4.4375,0c0.64453,0 1.0625,-0.10547 1.3125,-0.26954c0.25,-0.23046 0.41797,-0.8125 0.51953,-1.75l-0.85156,-0.27343c-0.0625,0.60547 -0.16797,1 -0.29297,1.23047c-0.10547,0.16796 -0.41797,0.26953 -0.91797,0.26953l-3.85156,0c-0.375,0 -0.5625,-0.14453 -0.5625,-0.41407l0,-2.71093l3.85156,0l0,0.89843c0,0.25 -0.16406,0.375 -0.47656,0.375c-0.5,0 -1.04297,-0.02343 -1.64844,-0.04296l0.1875,0.75c0.58594,0.01953 1.16797,0.04296 1.79297,0.04296c0.64453,-0.04296 0.98047,-0.33593 1,-0.89843l0,-1.625c0.60547,0.5 1.33203,0.98047 2.1875,1.4375l0.5625,-0.70703c-1.45703,-0.64454 -2.54297,-1.35547 -3.1875,-2.1875l2.83203,0l0,-0.79297l-5.83203,0c0.23047,-0.375 0.41797,-0.78907 0.625,-1.20703l4.54297,0l0,-0.79297l-4.25,0c0.20703,-0.64453 0.39453,-1.35157 0.51953,-2.10157l-0.85547,-0.10546c-0.125,0.79296 -0.3125,1.51953 -0.53906,2.20703l-3.8125,0zm3.22656,2.79297l2.66797,0c0.26953,0.41796 0.60547,0.8125 1.01953,1.1875l-4.75,0c0.375,-0.35547 0.73047,-0.75 1.0625,-1.1875zm0,0"/>
   <path id="svg_60" fill="rgb(0%,0%,0%)" fill-rule="nonzero" d="m303.99507,53.04688c0.58203,-0.0625 1.125,-0.16797 1.64453,-0.26954l0,1.70704l-1.76953,0l0,0.83203l1.72656,0c-0.41406,1.39843 -1.125,2.625 -2.08203,3.71093l0.35547,0.89454c0.72656,-0.9375 1.3125,-2.01954 1.76953,-3.1875l0,5.41796l0.8125,0l0,-5.48046c0.35547,0.48046 0.76953,1.14453 1.26953,1.98046l0.48047,-0.71093c-0.60547,-0.75 -1.16797,-1.41407 -1.75,-2.01953l0,-0.60547l1.48047,0l0,-0.83203l-1.48047,0l0,-1.89454c0.5,-0.125 0.98047,-0.25 1.41797,-0.41796l-0.3125,-0.8125c-1.0625,0.4375 -2.3125,0.70703 -3.73047,0.85546l0.16797,0.83204zm4.64453,-1.125l0,5.58203l5.1875,0l0,-5.58203l-5.1875,0zm4.33203,4.76953l-3.45703,0l0,-3.9375l3.45703,0l0,3.9375zm-3.28906,1.58593c-0.54297,1.33204 -1.21094,2.47657 -1.98047,3.4375l0.73047,0.51954c0.76953,-1.01954 1.45703,-2.20704 2.01953,-3.58204l-0.76953,-0.375zm2.9375,-0.0625l-0.6875,0.4375c0.83203,1.28907 1.51953,2.47657 2.01953,3.5625l0.73047,-0.52343c-0.48047,-0.97657 -1.16797,-2.14453 -2.0625,-3.47657zm0,0"/>
   <path id="svg_61" fill="rgb(0%,0%,0%)" fill-rule="nonzero" d="m318.97163,55.79688l0,0.76953l6.5,0l0,-0.76953l-6.5,0zm-0.85156,1.95703l0,0.79297l2.625,0c-0.83594,1.35546 -1.54297,2.1875 -2.0625,2.5c-0.0625,0.01953 -0.10547,0.0625 -0.1875,0.08203l0.1875,0.73047c2.26953,-0.14454 4.35156,-0.35547 6.25,-0.60547c0.25,0.29297 0.45703,0.60547 0.66406,0.91797l0.6875,-0.48047c-0.51953,-0.76953 -1.28906,-1.6875 -2.26953,-2.72657l-0.64453,0.39454c0.35156,0.41796 0.70703,0.8125 1.03906,1.20703c-1.53906,0.23047 -3.10156,0.39843 -4.6875,0.5c0.5625,-0.5 1.21094,-1.35157 1.9375,-2.51953l4.60547,0l0,-0.79297l-8.14453,0zm6.6875,-5.26953l0,1.39453l-7.0625,0l0,-1.39453l7.0625,0zm-7.0625,2.16796l7.89453,0l0,-2.98046l-8.73047,0l0,3.98046c-0.01953,2.41407 -0.4375,4.375 -1.26953,5.89454l0.625,0.58203c0.98047,-1.8125 1.48047,-3.97657 1.48047,-6.47657l0,-1zm0,0"/>
   <path id="svg_62" fill="rgb(0%,0%,0%)" fill-rule="nonzero" d="m328.1396,61.00391l0,-1.20703l1.20703,0l0,1.20703c0,0.44531 -0.08203,0.79687 -0.25,1.0625c-0.15625,0.27734 -0.39453,0.49218 -0.72656,0.64843l-0.29297,-0.46093c0.21875,-0.09766 0.37891,-0.24219 0.48047,-0.4375c0.10938,-0.17969 0.17188,-0.45313 0.1875,-0.8125l-0.60547,0zm0,0"/>
   <path id="svg_63" fill="rgb(0%,0%,0%)" fill-rule="nonzero" d="m338.12007,52.08984l0,0.75l2.98047,0c-0.04297,0.25 -0.08594,0.51954 -0.125,0.78907l-2.14844,0l0,5.54297l-1.125,0l0,0.76953l7.60547,0l0,-0.76953l-1.10547,0l0,-5.54297l-2.41406,0c0.03906,-0.25 0.08203,-0.51953 0.125,-0.78907l2.97656,0l0,-0.75l-2.875,0c0.02344,-0.27343 0.0625,-0.52343 0.08594,-0.8125l-0.83594,-0.125c-0.03906,0.3125 -0.0625,0.625 -0.08203,0.9375l-3.0625,0zm1.51953,7.08204l0,-0.79297l3.75,0l0,0.79297l-3.75,0zm0,-1.41797l0,-0.72657l3.75,0l0,0.72657l-3.75,0zm0,-1.35157l0,-0.73046l3.75,0l0,0.73046l-3.75,0zm0,-1.33593l0,-0.75l3.75,0l0,0.75l-3.75,0zm3.21094,5.04297l-0.54297,0.48046c0.8125,0.47657 1.60547,1.01954 2.3125,1.66407l0.54297,-0.60157c-0.73047,-0.60546 -1.5,-1.10546 -2.3125,-1.54296zm-2.66797,-0.01954c-0.6875,0.58204 -1.51953,1.08204 -2.51953,1.51954l0.51953,0.64453c1.01953,-0.47657 1.89453,-1.01953 2.58203,-1.64453l-0.58203,-0.51954zm-5.83203,-5.9375l0,0.8125l1.33203,0l0,4c-0.48047,0.10157 -0.95703,0.20704 -1.4375,0.3125l0.23047,0.83204c1.14453,-0.26954 2.25,-0.625 3.25,-1.01954l0,-0.85546c-0.39844,0.16796 -0.79297,0.3125 -1.21094,0.45703l0,-3.72657l1.23047,0l0,-0.8125l-1.23047,0l0,-2.89843l-0.83203,0l0,2.89843l-1.33203,0zm0,0"/>
   <path id="svg_64" fill="rgb(0%,0%,0%)" fill-rule="nonzero" d="m351.72554,51.15234l-0.91797,0.14454c0.25,0.41796 0.45703,0.85546 0.64453,1.33203l-4.64453,0l0,0.8125l3.4375,0c-0.98047,1.4375 -1.76953,2.33593 -2.35547,2.66797c-0.0625,0.01953 -0.125,0.04296 -0.20703,0.0625l0.20703,0.79296c2.48047,-0.125 4.79297,-0.3125 6.91797,-0.54296c0.3125,0.4375 0.58203,0.875 0.83203,1.3125l0.73047,-0.5c-0.5625,-0.91797 -1.35547,-1.98047 -2.375,-3.20704l-0.6875,0.4375c0.35547,0.41407 0.6875,0.83204 1,1.26954c-1.75,0.1875 -3.51953,0.33203 -5.26953,0.4375c0.60156,-0.54297 1.3125,-1.45704 2.10156,-2.73047l5.54297,0l0,-0.8125l-4.35547,0c-0.20703,-0.5625 -0.39453,-1.03907 -0.60156,-1.47657zm-2.0625,6.25c-0.0625,1.22657 -0.33594,2.125 -0.79297,2.66407c-0.45703,0.5625 -1.25,1.04297 -2.35547,1.4375l0.54297,0.6875c1.23047,-0.5 2.08203,-1.08203 2.60547,-1.75c0.47656,-0.64453 0.76953,-1.64453 0.85156,-3.03907l-0.85156,0zm5.85156,4.60157c0.4375,0 0.77344,-0.10157 1,-0.3125c0.25,-0.25 0.41797,-0.97657 0.54297,-2.20703l-0.79297,-0.23047c-0.0625,1 -0.20703,1.60547 -0.39453,1.77343c-0.14453,0.10157 -0.35547,0.16407 -0.58203,0.16407l-1.39844,0c-0.41406,0 -0.625,-0.1875 -0.625,-0.53907l0,-3.39843l-0.85156,0l0,3.54297c0,0.8125 0.41406,1.20703 1.25,1.20703l1.85156,0zm0,0"/>
   <path id="svg_65" fill="rgb(0%,0%,0%)" fill-rule="nonzero" d="m363.78804,59.98438l0,1.01953l-5.6875,0c0,-0.25 0.03906,-0.48828 0.125,-0.72657c0.14844,-0.38671 0.38281,-0.77343 0.70703,-1.14843c0.31641,-0.375 0.77734,-0.80078 1.375,-1.28907c0.92578,-0.77734 1.55078,-1.38671 1.875,-1.83593c0.33203,-0.44141 0.5,-0.86328 0.5,-1.26953c0,-0.41797 -0.15625,-0.76172 -0.45703,-1.04297c-0.29297,-0.28907 -0.67969,-0.4375 -1.14844,-0.4375c-0.51562,0 -0.92578,0.15625 -1.22656,0.46093c-0.30859,0.30469 -0.46094,0.72657 -0.46094,1.26954l-1.08203,-0.125c0.06641,-0.80079 0.34375,-1.41797 0.83203,-1.83204c0.48438,-0.42968 1.13672,-0.64843 1.96094,-0.64843c0.81641,0 1.46094,0.23047 1.9375,0.6875c0.48437,0.46093 0.72656,1.02343 0.72656,1.6875c0,0.35156 -0.07031,0.6875 -0.20703,1.02343c-0.14062,0.33204 -0.375,0.6875 -0.70703,1.0625c-0.32422,0.36329 -0.85547,0.86329 -1.60547,1.5c-0.64062,0.53125 -1.05078,0.89063 -1.23047,1.08204c-0.17969,0.19921 -0.32812,0.38671 -0.4375,0.5625l4.21094,0zm0,0"/>
   <path id="svg_66" stroke-miterlimit="10" stroke="rgb(0%,0%,0%)" stroke-linejoin="round" stroke-linecap="round" fill="none" d="m313.85056,86.00007l0,-9.59765"/>
   <path id="svg_67" stroke-miterlimit="10" stroke="rgb(0%,0%,0%)" fill="none" d="m313.85056,71.06648l0,5.33595m-2,0l2,-5.33595l2,5.33595"/>
   <path id="svg_68" fill="rgb(40.000001%,74.901962%,100%)" fill-rule="nonzero" d="m392.52632,111.19922l139.58203,0l0,-25.19922l-139.58203,0l0,25.19922zm0,0"/>
   <path id="svg_69" stroke-miterlimit="10" stroke="rgb(0%,0%,0%)" stroke-linejoin="round" stroke-linecap="round" fill="none" d="m392.52633,86.00007l139.58199,0l0,25.19921l-139.58199,0l0,-25.19921zm0,0"/>
   <path id="svg_70" fill="rgb(0%,0%,0%)" fill-rule="nonzero" d="m400.24898,101.40234l1.0625,-0.14843c0.125,0.60156 0.32422,1.03125 0.60547,1.29297c0.29296,0.26562 0.65234,0.39453 1.08203,0.39453c0.48437,0 0.89843,-0.16407 1.23047,-0.5c0.34375,-0.34375 0.51953,-0.77344 0.51953,-1.28907c0,-0.48437 -0.16016,-0.88281 -0.47657,-1.1875c-0.30859,-0.32031 -0.70312,-0.48046 -1.1875,-0.48046c-0.21093,0 -0.46093,0.04296 -0.75,0.125l0.125,-0.9375c0.06641,0.01562 0.125,0.01953 0.16407,0.01953c0.44531,0 0.84375,-0.11328 1.21093,-0.35157c0.35938,-0.23437 0.53907,-0.59375 0.53907,-1.08593c0,-0.38282 -0.13282,-0.70703 -0.39453,-0.95703c-0.26563,-0.25 -0.60547,-0.375 -1.01954,-0.375c-0.40625,0 -0.74609,0.13671 -1.02343,0.39453c-0.26563,0.25 -0.4375,0.63672 -0.51953,1.14843l-1.0625,-0.1875c0.13671,-0.71093 0.42968,-1.25781 0.875,-1.64843c0.45703,-0.38282 1.02734,-0.58203 1.70703,-0.58203c0.47265,0 0.90234,0.10546 1.29297,0.3125c0.40234,0.19921 0.70703,0.46875 0.91796,0.8125c0.20704,0.34765 0.3125,0.71875 0.3125,1.10546c0,0.375 -0.10546,0.71875 -0.3125,1.01954c-0.19921,0.30859 -0.48828,0.55078 -0.875,0.73046c0.51172,0.11329 0.90625,0.35157 1.1875,0.72657c0.27344,0.36718 0.41407,0.82422 0.41407,1.375c0,0.75 -0.28125,1.39062 -0.83203,1.91797c-0.54297,0.51562 -1.23047,0.76953 -2.0625,0.76953c-0.75,0 -1.375,-0.21875 -1.875,-0.66407c-0.5,-0.44531 -0.78516,-1.02734 -0.85547,-1.75zm0,0"/>
   <g id="svg_71" clip-rule="nonzero" clip-path="url(#clip6)">
    <path id="svg_72" fill="rgb(0%,0%,0%)" fill-rule="nonzero" d="m413.34273,100.64844l2.375,-2.375c0.125,-0.14453 0.16797,-0.16406 0.16797,-0.25c0,-0.14453 -0.125,-0.25 -0.25,-0.25c-0.08594,0 -0.14844,0.04297 -0.25,0.16797l-2.39844,2.375l-2.39453,-2.375c-0.125,-0.14453 -0.16797,-0.16797 -0.25,-0.16797c-0.125,0 -0.25,0.10547 -0.25,0.25c0,0.08594 0.0625,0.14844 0.16797,0.25l2.375,2.375l-2.375,2.39844c-0.125,0.10156 -0.16797,0.1875 -0.16797,0.25c0,0.14453 0.125,0.25 0.25,0.25c0.08203,0 0.125,-0.02344 0.25,-0.16797l2.39453,-2.375l2.39844,2.375c0.10156,0.125 0.1875,0.16797 0.25,0.16797c0.14453,0 0.25,-0.10547 0.25,-0.25c0,-0.08594 -0.04297,-0.10547 -0.16797,-0.25l-2.375,-2.39844zm0,0"/>
    <path id="svg_73" fill="rgb(0%,0%,0%)" fill-rule="nonzero" d="m413.34273,100.64844l2.375,-2.375c0.125,-0.14453 0.16797,-0.16406 0.16797,-0.25c0,-0.14453 -0.125,-0.25 -0.25,-0.25c-0.08594,0 -0.14844,0.04297 -0.25,0.16797l-2.39844,2.375l-2.39453,-2.375c-0.125,-0.14453 -0.16797,-0.16797 -0.25,-0.16797c-0.125,0 -0.25,0.10547 -0.25,0.25c0,0.08594 0.0625,0.14844 0.16797,0.25l2.375,2.375l-2.375,2.39844c-0.125,0.10156 -0.16797,0.1875 -0.16797,0.25c0,0.14453 0.125,0.25 0.25,0.25c0.08203,0 0.125,-0.02344 0.25,-0.16797l2.39453,-2.375l2.39844,2.375c0.10156,0.125 0.1875,0.16797 0.25,0.16797c0.14453,0 0.25,-0.10547 0.25,-0.25c0,-0.08594 -0.04297,-0.10547 -0.16797,-0.25l-2.375,-2.39844zm0,0"/>
   </g>
   <path id="svg_74" fill="rgb(0%,0%,0%)" fill-rule="nonzero" d="m421.37007,101.40234l1.0625,-0.14843c0.125,0.60156 0.32422,1.03125 0.60547,1.29297c0.28906,0.26562 0.64844,0.39453 1.08203,0.39453c0.48438,0 0.89453,-0.16407 1.23047,-0.5c0.34375,-0.34375 0.51953,-0.77344 0.51953,-1.28907c0,-0.48437 -0.16016,-0.88281 -0.48047,-1.1875c-0.30469,-0.32031 -0.70312,-0.48046 -1.1875,-0.48046c-0.20703,0 -0.45703,0.04296 -0.75,0.125l0.125,-0.9375c0.07031,0.01562 0.125,0.01953 0.16797,0.01953c0.44141,0 0.84375,-0.11328 1.20703,-0.35157c0.35938,-0.23437 0.54297,-0.59375 0.54297,-1.08593c0,-0.38282 -0.13281,-0.70703 -0.39453,-0.95703c-0.26563,-0.25 -0.60547,-0.375 -1.02344,-0.375c-0.40625,0 -0.74219,0.13671 -1.01953,0.39453c-0.26562,0.25 -0.4375,0.63672 -0.51953,1.14843l-1.0625,-0.1875c0.13672,-0.71093 0.42578,-1.25781 0.875,-1.64843c0.45703,-0.38282 1.02344,-0.58203 1.70703,-0.58203c0.46875,0 0.90234,0.10546 1.29297,0.3125c0.39844,0.19921 0.70703,0.46875 0.91406,0.8125c0.21094,0.34765 0.3125,0.71875 0.3125,1.10546c0,0.375 -0.10156,0.71875 -0.3125,1.01954c-0.19531,0.30859 -0.48828,0.55078 -0.875,0.73046c0.51172,0.11329 0.90625,0.35157 1.1875,0.72657c0.27735,0.36718 0.41797,0.82422 0.41797,1.375c0,0.75 -0.28125,1.39062 -0.83203,1.91797c-0.54297,0.51562 -1.23047,0.76953 -2.0625,0.76953c-0.75,0 -1.375,-0.21875 -1.875,-0.66407c-0.5,-0.44531 -0.78906,-1.02734 -0.85547,-1.75zm0,0"/>
   <path id="svg_75" fill="rgb(0%,0%,0%)" fill-rule="nonzero" d="m428.27241,98.54688l0,0.6875l1.14844,0l0,4.16796l-1.125,0.03907l0.10156,0.75c1.6875,-0.10157 3.08594,-0.22657 4.23047,-0.35157l0,1.0625l0.83203,0l0,-1.16796c0.23047,-0.04297 0.48047,-0.08204 0.6875,-0.125l0,-0.6875c-0.20703,0.04296 -0.45703,0.08203 -0.6875,0.10546l0,-3.79296l5.39844,0l0,-0.6875l-10.58594,0zm1.91797,4.8125l0,-1.04297l2.4375,0l0,0.83593c-0.73047,0.08204 -1.54297,0.14454 -2.4375,0.20704zm0,-1.66797l0,-0.89453l2.4375,0l0,0.89453l-2.4375,0zm0,-1.53907l0,-0.91796l2.4375,0l0,0.91796l-2.4375,0zm-0.39453,-5.85546l0,3.45703l7.58203,0l0,-3.45703l-7.58203,0zm6.75,2.83203l-5.9375,0l0,-0.8125l5.9375,0l0,0.8125zm-5.9375,-1.41407l0,-0.77343l5.9375,0l0,0.77343l-5.9375,0zm3.85156,5.03907c0.25,0.875 0.6875,1.66797 1.35547,2.35547c-0.5,0.4375 -1.125,0.79296 -1.85547,1.10546l0.4375,0.66407c0.79297,-0.33203 1.46094,-0.75 2.02344,-1.22657c0.53906,0.45704 1.20703,0.85157 2,1.22657l0.4375,-0.70703c-0.75,-0.3125 -1.35547,-0.66797 -1.89844,-1.0625c0.58594,-0.66797 0.98047,-1.45704 1.21094,-2.39454l0,-0.66796l-4.08594,0l0,0.70703l0.375,0zm1.89844,1.83593c-0.5625,-0.54296 -0.9375,-1.14843 -1.14844,-1.83593l2.1875,0c-0.20703,0.66797 -0.5625,1.29297 -1.03906,1.83593zm0,0"/>
   <path id="svg_76" fill="rgb(0%,0%,0%)" fill-rule="nonzero" d="m440.27241,97.02734l0,0.83204l4.52344,0c-0.625,2.95703 -2.21094,5.0625 -4.75,6.33203l0.53906,0.71093c2.54297,-1.33593 4.21094,-3.46093 4.9375,-6.375c0.91797,2.72657 2.5625,4.8125 4.98047,6.28907l0.54297,-0.6875c-2.46094,-1.45703 -4.125,-3.5625 -4.96094,-6.26953l4.73047,0l0,-0.83204l-4.98047,0c0.08594,-0.75 0.14844,-1.52343 0.14844,-2.375l0,-0.77343l-0.875,0l0,0.98047c-0.02344,0.75 -0.0625,1.45703 -0.16797,2.16796l-4.66797,0zm0,0"/>
   <path id="svg_77" fill="rgb(0%,0%,0%)" fill-rule="nonzero" d="m457.04585,103.58984l0,-8.375l5.70703,0l0,-0.83593l-6.58203,0l0,10.08593l6.6875,0l0,-0.875l-5.8125,0zm-4.04297,-9.5l-0.60547,0.60157c1,0.64843 1.77344,1.25 2.3125,1.83593l0.60547,-0.625c-0.625,-0.58593 -1.375,-1.21093 -2.3125,-1.8125zm-0.23047,2.9375l-0.625,0.60157c0.9375,0.625 1.64844,1.21093 2.1875,1.77343l0.625,-0.625c-0.60156,-0.58593 -1.33203,-1.16796 -2.1875,-1.75zm1.41797,3.53907c-0.51953,1.3125 -1.16797,2.60547 -1.875,3.85547l0.875,0.39453c0.66797,-1.20703 1.25,-2.53907 1.8125,-3.9375l-0.8125,-0.3125zm0,0"/>
   <path id="svg_78" fill="rgb(0%,0%,0%)" fill-rule="nonzero" d="m469.19038,100.69141l0,4.14843l0.79297,0l0,-4.23046l0.64453,-0.10547c0.45703,1.79297 1.70703,3.21093 3.75,4.25l0.4375,-0.72657c-0.91797,-0.41796 -1.6875,-0.91796 -2.26953,-1.5c0.6875,-0.41796 1.26953,-0.8125 1.70703,-1.21093l-0.45703,-0.60157c-0.46094,0.4375 -1.04297,0.85157 -1.73047,1.26954c-0.35547,-0.48047 -0.625,-1.01954 -0.76953,-1.60547c0.8125,-0.16407 1.5625,-0.375 2.25,-0.64453l-0.39844,-0.66797c-2.08203,0.71093 -4.75,1.08593 -7.9375,1.08593l0.25,0.72657c1.35547,0 2.60547,-0.0625 3.73047,-0.1875zm-4.70703,-6.375l0,0.6875l0.91406,0l0,3.48047c-0.39453,0.01953 -0.76953,0.0625 -1.1875,0.10546l0.08594,0.70704c1.4375,-0.10547 2.78906,-0.26954 4.01953,-0.4375l0,0.66796l0.76953,0l0,-0.77343c0.27344,-0.03907 0.54297,-0.08203 0.83594,-0.125l0,-0.66407c-0.27344,0.03907 -0.5625,0.08204 -0.83594,0.14454l0,-3.10547l0.83594,0l0,-0.6875l-5.4375,0zm1.66406,4.10547l0,-0.8125l2.16797,0l0,0.58203c-0.66797,0.08593 -1.39453,0.16797 -2.16797,0.23047zm0,-1.41797l0,-0.6875l2.16797,0l0,0.6875l-2.16797,0zm0,-1.28907l0,-0.71093l2.16797,0l0,0.71093l-2.16797,0zm4.58594,0.125l-0.52344,0.51954c0.64844,0.41796 1.27344,0.85546 1.8125,1.25c-0.53906,0.5 -1.1875,0.875 -1.89453,1.10546l0.33203,0.70704c0.83594,-0.29297 1.5625,-0.73047 2.1875,-1.33204c0.52344,0.39454 0.98047,0.78907 1.375,1.20704l0.5625,-0.5625c-0.41406,-0.39454 -0.89453,-0.79297 -1.4375,-1.20704c0.48047,-0.60546 0.91797,-1.33593 1.25,-2.21093l0,-0.625l-4.125,0l0,0.73047l3.25,0c-0.28906,0.60546 -0.60156,1.16796 -1,1.64453c-0.53906,-0.41407 -1.14453,-0.8125 -1.78906,-1.22657zm-3.66797,5.125c-0.33203,0.28907 -0.70703,0.51954 -1.10547,0.75c-0.47656,0.22657 -0.97656,0.41407 -1.5625,0.5625l0.41797,0.66407c0.6875,-0.25 1.26953,-0.47657 1.70703,-0.72657c0.39844,-0.23046 0.79297,-0.5 1.1875,-0.85546l-0.64453,-0.39454zm0.9375,1.3125c-0.45703,0.375 -0.9375,0.70704 -1.45703,0.97657c-0.60547,0.3125 -1.25,0.5625 -2,0.75l0.41406,0.6875c0.89844,-0.3125 1.60547,-0.60157 2.16797,-0.91407c0.5,-0.29296 1.01953,-0.64843 1.51953,-1.10546l-0.64453,-0.39454zm0,0"/>
   <path id="svg_79" fill="rgb(0%,0%,0%)" fill-rule="nonzero" d="m479.44038,98.46484l0,0.76954l6.5,0l0,-0.76954l-6.5,0zm-0.85547,1.95704l0,0.79296l2.625,0c-0.83203,1.35157 -1.53906,2.1875 -2.0625,2.5c-0.0625,0.01954 -0.10156,0.0625 -0.1875,0.08204l0.1875,0.73046c2.27344,-0.14843 4.35547,-0.35546 6.25,-0.60546c0.25,0.29296 0.46094,0.60546 0.66797,0.91796l0.6875,-0.48046c-0.51953,-0.76954 -1.29297,-1.6875 -2.26953,-2.73047l-0.64844,0.39843c0.35547,0.41407 0.71094,0.8125 1.04297,1.20704c-1.54297,0.23046 -3.10547,0.39453 -4.6875,0.5c0.5625,-0.5 1.20703,-1.35547 1.9375,-2.51954l4.60547,0l0,-0.79296l-8.14844,0zm6.6875,-5.26954l0,1.39454l-7.0625,0l0,-1.39454l7.0625,0zm-7.0625,2.16407l7.89844,0l0,-2.97657l-8.73047,0l0,3.97657c-0.01953,2.41797 -0.4375,4.375 -1.26953,5.89843l0.625,0.58204c0.97656,-1.8125 1.47656,-3.98047 1.47656,-6.48047l0,-1zm0,0"/>
   <path id="svg_80" fill="rgb(0%,0%,0%)" fill-rule="nonzero" d="m488.60835,103.67188l0,-1.20704l1.20703,0l0,1.20704c0,0.4414 -0.08203,0.79687 -0.25,1.0625c-0.15625,0.27734 -0.39453,0.48828 -0.73047,0.64453l-0.28906,-0.45703c0.21875,-0.09766 0.37891,-0.2461 0.47656,-0.4375c0.10938,-0.1836 0.17188,-0.45313 0.1875,-0.8125l-0.60156,0zm0,0"/>
   <path id="svg_81" fill="rgb(0%,0%,0%)" fill-rule="nonzero" d="m498.58882,94.75391l0,0.75l2.97656,0c-0.03906,0.25 -0.08203,0.52343 -0.125,0.79297l-2.14453,0l0,5.54296l-1.125,0l0,0.76954l7.60547,0l0,-0.76954l-1.10547,0l0,-5.54296l-2.41797,0c0.04297,-0.25 0.08594,-0.51954 0.125,-0.79297l2.98047,0l0,-0.75l-2.875,0c0.01953,-0.26953 0.0625,-0.51953 0.08203,-0.8125l-0.83203,-0.125c-0.04297,0.3125 -0.0625,0.625 -0.08203,0.9375l-3.0625,0zm1.51953,7.08593l0,-0.79296l3.75,0l0,0.79296l-3.75,0zm0,-1.41796l0,-0.73047l3.75,0l0,0.73047l-3.75,0zm0,-1.35547l0,-0.72657l3.75,0l0,0.72657l-3.75,0zm0,-1.33203l0,-0.75l3.75,0l0,0.75l-3.75,0zm3.20703,5.04296l-0.53906,0.47657c0.8125,0.48047 1.60156,1.02343 2.3125,1.66797l0.53906,-0.60547c-0.72656,-0.60157 -1.5,-1.10157 -2.3125,-1.53907zm-2.66406,-0.02343c-0.6875,0.58593 -1.52344,1.08593 -2.52344,1.52343l0.52344,0.64454c1.01953,-0.48047 1.89453,-1.01954 2.58203,-1.64454l-0.58203,-0.52343zm-5.83594,-5.9375l0,0.8125l1.33594,0l0,4c-0.48047,0.10547 -0.96094,0.21093 -1.4375,0.3125l0.22656,0.83593c1.14844,-0.27343 2.25,-0.625 3.25,-1.02343l0,-0.85157c-0.39453,0.16407 -0.78906,0.3125 -1.20703,0.45704l0,-3.73047l1.23047,0l0,-0.8125l-1.23047,0l0,-2.89453l-0.83203,0l0,2.89453l-1.33594,0zm0,0"/>
   <path id="svg_82" fill="rgb(0%,0%,0%)" fill-rule="nonzero" d="m512.19038,93.81641l-0.91406,0.14843c0.25,0.41407 0.45703,0.85157 0.64453,1.33204l-4.64453,0l0,0.8125l3.4375,0c-0.98047,1.4375 -1.77344,2.33203 -2.35547,2.66796c-0.0625,0.01954 -0.125,0.03907 -0.20703,0.0625l0.20703,0.78907c2.48047,-0.125 4.79297,-0.3125 6.91797,-0.53907c0.3125,0.4375 0.58203,0.875 0.83203,1.3125l0.73047,-0.5c-0.5625,-0.91796 -1.35547,-1.98046 -2.375,-3.21093l-0.6875,0.4375c0.35156,0.41797 0.6875,0.83593 1,1.27343c-1.75,0.1875 -3.52344,0.33204 -5.27344,0.4375c0.60547,-0.54296 1.3125,-1.46093 2.10547,-2.73046l5.54297,0l0,-0.8125l-4.35547,0c-0.20703,-0.5625 -0.39453,-1.04297 -0.60547,-1.48047zm-2.0625,6.25c-0.0625,1.23047 -0.33203,2.125 -0.78906,2.66797c-0.46094,0.5625 -1.25,1.04296 -2.35547,1.4375l0.54297,0.6875c1.22656,-0.5 2.08203,-1.08204 2.60156,-1.75c0.48047,-0.64454 0.77344,-1.64454 0.85547,-3.04297l-0.85547,0zm5.85547,4.60547c0.4375,0 0.76953,-0.10547 1,-0.3125c0.25,-0.25 0.41797,-0.98047 0.54297,-2.20704l-0.79297,-0.23046c-0.0625,1 -0.20703,1.60546 -0.39453,1.76953c-0.14844,0.10547 -0.35547,0.16797 -0.58594,0.16797l-1.39453,0c-0.41797,0 -0.625,-0.1875 -0.625,-0.54297l0,-3.39453l-0.85547,0l0,3.54296c0,0.8125 0.41797,1.20704 1.25,1.20704l1.85547,0zm0,0"/>
   <path id="svg_83" fill="rgb(0%,0%,0%)" fill-rule="nonzero" d="m522.69038,103.67188l-1.0625,0l0,-6.73047c-0.25,0.25 -0.58203,0.5 -1,0.75c-0.41406,0.24218 -0.78515,0.41406 -1.10156,0.52343l0,-1.02343c0.58203,-0.25782 1.09375,-0.58594 1.53906,-0.97657c0.44532,-0.40234 0.75782,-0.79296 0.9375,-1.16796l0.6875,0l0,8.625zm0,0"/>
   <path id="svg_84" stroke-miterlimit="10" stroke="rgb(0%,0%,0%)" stroke-linejoin="round" stroke-linecap="round" fill="none" d="m392.52633,43.33211l139.58199,0l0,25.19922l-139.58199,0l0,-25.19922zm0,0"/>
   <path id="svg_85" fill="rgb(0%,0%,0%)" fill-rule="nonzero" d="m433.23335,61.00391l-1.0625,0l0,-6.72657c-0.25,0.25 -0.58203,0.5 -1,0.75c-0.41797,0.23829 -0.78515,0.41016 -1.10547,0.51954l0,-1.01954c0.58594,-0.26171 1.09766,-0.58984 1.54297,-0.98046c0.44141,-0.40235 0.75391,-0.79297 0.9375,-1.16797l0.6875,0l0,8.625zm0,0"/>
   <g id="svg_86" clip-rule="nonzero" clip-path="url(#clip7)">
    <path id="svg_87" fill="rgb(0%,0%,0%)" fill-rule="nonzero" d="m442.24507,57.98438l2.375,-2.375c0.125,-0.14844 0.16797,-0.16797 0.16797,-0.25c0,-0.14844 -0.125,-0.25 -0.25,-0.25c-0.08594,0 -0.14844,0.03906 -0.25,0.16406l-2.39844,2.375l-2.39453,-2.375c-0.125,-0.14453 -0.16797,-0.16406 -0.25,-0.16406c-0.125,0 -0.25,0.10156 -0.25,0.25c0,0.08203 0.0625,0.14453 0.16797,0.25l2.375,2.375l-2.375,2.39453c-0.125,0.10547 -0.16797,0.1875 -0.16797,0.25c0,0.14453 0.125,0.25 0.25,0.25c0.08203,0 0.125,-0.01953 0.25,-0.16797l2.39453,-2.375l2.39844,2.375c0.10156,0.125 0.1875,0.16797 0.25,0.16797c0.14453,0 0.25,-0.10547 0.25,-0.25c0,-0.08203 -0.04297,-0.10547 -0.16797,-0.25l-2.375,-2.39453zm0,0"/>
    <path id="svg_88" fill="rgb(0%,0%,0%)" fill-rule="nonzero" d="m442.24507,57.98438l2.375,-2.375c0.125,-0.14844 0.16797,-0.16797 0.16797,-0.25c0,-0.14844 -0.125,-0.25 -0.25,-0.25c-0.08594,0 -0.14844,0.03906 -0.25,0.16406l-2.39844,2.375l-2.39453,-2.375c-0.125,-0.14453 -0.16797,-0.16406 -0.25,-0.16406c-0.125,0 -0.25,0.10156 -0.25,0.25c0,0.08203 0.0625,0.14453 0.16797,0.25l2.375,2.375l-2.375,2.39453c-0.125,0.10547 -0.16797,0.1875 -0.16797,0.25c0,0.14453 0.125,0.25 0.25,0.25c0.08203,0 0.125,-0.01953 0.25,-0.16797l2.39453,-2.375l2.39844,2.375c0.10156,0.125 0.1875,0.16797 0.25,0.16797c0.14453,0 0.25,-0.10547 0.25,-0.25c0,-0.08203 -0.04297,-0.10547 -0.16797,-0.25l-2.375,-2.39453zm0,0"/>
   </g>
   <path id="svg_89" fill="rgb(0%,0%,0%)" fill-rule="nonzero" d="m454.35445,61.00391l-1.0625,0l0,-6.72657c-0.25,0.25 -0.58594,0.5 -1,0.75c-0.41797,0.23829 -0.78907,0.41016 -1.10547,0.51954l0,-1.01954c0.58203,-0.26171 1.09375,-0.58984 1.54297,-0.98046c0.4414,-0.40235 0.7539,-0.79297 0.9375,-1.16797l0.6875,0l0,8.625zm0,0"/>
   <path id="svg_90" fill="rgb(0%,0%,0%)" fill-rule="nonzero" d="m463.02632,51.35938l-0.76953,0.26953c0.35547,0.48047 0.6875,1.04297 1,1.66797l0.73047,-0.33204c-0.27344,-0.5625 -0.58594,-1.08593 -0.96094,-1.60546zm5.89844,0c-0.29297,0.60546 -0.64844,1.125 -1.10547,1.5625l0.6875,0.39453c0.48047,-0.47657 0.875,-1.03907 1.1875,-1.66407l-0.76953,-0.29296zm-7.5,2.01953l0,0.79297l3.47656,0c-0.1875,0.41796 -0.4375,0.83203 -0.70703,1.20703l-3.45703,0l0,0.79297l2.85156,0c-0.83203,0.9375 -1.89453,1.70703 -3.1875,2.26953l0.48047,0.75c0.79297,-0.375 1.51953,-0.83203 2.16797,-1.35157l0,3.26954c0,0.625 0.35156,0.9375 1.08203,0.9375l4.4375,0c0.64453,0 1.0625,-0.10547 1.3125,-0.26954c0.25,-0.23046 0.41797,-0.8125 0.51953,-1.75l-0.85156,-0.27343c-0.0625,0.60547 -0.16797,1 -0.29297,1.23047c-0.10547,0.16796 -0.41797,0.26953 -0.91797,0.26953l-3.85156,0c-0.375,0 -0.5625,-0.14453 -0.5625,-0.41407l0,-2.71093l3.85156,0l0,0.89843c0,0.25 -0.16406,0.375 -0.47656,0.375c-0.5,0 -1.04297,-0.02343 -1.64844,-0.04296l0.1875,0.75c0.58594,0.01953 1.16797,0.04296 1.79297,0.04296c0.64453,-0.04296 0.98047,-0.33593 1,-0.89843l0,-1.625c0.60547,0.5 1.33203,0.98047 2.1875,1.4375l0.5625,-0.70703c-1.45703,-0.64454 -2.54297,-1.35547 -3.1875,-2.1875l2.83203,0l0,-0.79297l-5.83203,0c0.23047,-0.375 0.41797,-0.78907 0.625,-1.20703l4.54297,0l0,-0.79297l-4.25,0c0.20703,-0.64453 0.39453,-1.35157 0.51953,-2.10157l-0.85547,-0.10546c-0.125,0.79296 -0.3125,1.51953 -0.53906,2.20703l-3.8125,0zm3.22656,2.79297l2.66797,0c0.26953,0.41796 0.60547,0.8125 1.01953,1.1875l-4.75,0c0.375,-0.35547 0.73047,-0.75 1.0625,-1.1875zm0,0"/>
   <path id="svg_91" fill="rgb(0%,0%,0%)" fill-rule="nonzero" d="m472.79976,53.04688c0.58203,-0.0625 1.125,-0.16797 1.64453,-0.26954l0,1.70704l-1.76953,0l0,0.83203l1.72656,0c-0.41406,1.39843 -1.125,2.625 -2.08203,3.71093l0.35547,0.89454c0.72656,-0.9375 1.3125,-2.01954 1.76953,-3.1875l0,5.41796l0.8125,0l0,-5.48046c0.35547,0.48046 0.76953,1.14453 1.26953,1.98046l0.48047,-0.71093c-0.60547,-0.75 -1.16797,-1.41407 -1.75,-2.01953l0,-0.60547l1.48047,0l0,-0.83203l-1.48047,0l0,-1.89454c0.5,-0.125 0.98047,-0.25 1.41797,-0.41796l-0.3125,-0.8125c-1.0625,0.4375 -2.3125,0.70703 -3.73047,0.85546l0.16797,0.83204zm4.64453,-1.125l0,5.58203l5.1875,0l0,-5.58203l-5.1875,0zm4.33203,4.76953l-3.45703,0l0,-3.9375l3.45703,0l0,3.9375zm-3.28906,1.58593c-0.54297,1.33204 -1.21094,2.47657 -1.98047,3.4375l0.73047,0.51954c0.76953,-1.01954 1.45703,-2.20704 2.01953,-3.58204l-0.76953,-0.375zm2.9375,-0.0625l-0.6875,0.4375c0.83203,1.28907 1.51953,2.47657 2.01953,3.5625l0.73047,-0.52343c-0.48047,-0.97657 -1.16797,-2.14453 -2.0625,-3.47657zm0,0"/>
   <path id="svg_92" fill="rgb(0%,0%,0%)" fill-rule="nonzero" d="m487.77632,55.79688l0,0.76953l6.5,0l0,-0.76953l-6.5,0zm-0.85156,1.95703l0,0.79297l2.625,0c-0.83594,1.35546 -1.54297,2.1875 -2.0625,2.5c-0.0625,0.01953 -0.10547,0.0625 -0.1875,0.08203l0.1875,0.73047c2.26953,-0.14454 4.35156,-0.35547 6.25,-0.60547c0.25,0.29297 0.45703,0.60547 0.66406,0.91797l0.6875,-0.48047c-0.51953,-0.76953 -1.28906,-1.6875 -2.26953,-2.72657l-0.64453,0.39454c0.35156,0.41796 0.70703,0.8125 1.03906,1.20703c-1.53906,0.23047 -3.10156,0.39843 -4.6875,0.5c0.5625,-0.5 1.21094,-1.35157 1.9375,-2.51953l4.60547,0l0,-0.79297l-8.14453,0zm6.6875,-5.26953l0,1.39453l-7.0625,0l0,-1.39453l7.0625,0zm-7.0625,2.16796l7.89453,0l0,-2.98046l-8.73047,0l0,3.98046c-0.01953,2.41407 -0.4375,4.375 -1.26953,5.89454l0.625,0.58203c0.98047,-1.8125 1.48047,-3.97657 1.48047,-6.47657l0,-1zm0,0"/>
   <path id="svg_93" stroke-miterlimit="10" stroke="rgb(0%,0%,0%)" stroke-linejoin="round" stroke-linecap="round" fill="none" d="m462.31928,86.00007l0,-9.59765"/>
   <path id="svg_94" stroke-miterlimit="10" stroke="rgb(0%,0%,0%)" fill="none" d="m462.31928,71.06648l0,5.33595m-2,0l2,-5.33595l2,5.33595"/>
   <path id="svg_95" fill="rgb(69.803923%,85.09804%,100%)" fill-rule="nonzero" d="m195.21773,153.86328l105.10547,0l0,-25.19531l-105.10547,0l0,25.19531zm0,0"/>
   <path id="svg_96" stroke-miterlimit="10" stroke="rgb(0%,0%,0%)" stroke-linejoin="round" stroke-linecap="round" fill="none" d="m195.21777,128.66804l105.10545,0l0,25.1953l-105.10545,0l0,-25.1953zm0,0"/>
   <path id="svg_97" fill="rgb(0%,0%,0%)" fill-rule="nonzero" d="m238.51851,139.47656l0,1.76953l-1.1875,0c0.29297,-0.76953 0.58594,-1.64453 0.83594,-2.625l2.3125,0l0,-0.8125l-2.10547,0c0.10547,-0.48046 0.20703,-1 0.33203,-1.54296l-0.78906,-0.16407c-0.125,0.58203 -0.23047,1.16407 -0.35547,1.70703l-1.1875,0l0,0.8125l1,0c-0.26953,1.0625 -0.5625,1.98047 -0.91797,2.6875l0.1875,0.73047l1.875,0l0,1.78907c-0.70703,0.125 -1.4375,0.25 -2.22656,0.33593l0.10156,0.85157c0.73047,-0.125 1.4375,-0.22657 2.125,-0.375l0,2.5l0.79297,0l0,-2.66407l1.14453,-0.29297l0,-0.8125c-0.35156,0.08204 -0.72656,0.1875 -1.14453,0.29297l0,-1.625l1.10547,0l0,-0.79297l-1.10547,0l0,-1.76953l-0.79297,0zm3.54297,-0.625l0,0.70703l3.4375,0l0,-0.70703l-3.4375,0c0.60547,-0.58593 1.1875,-1.23047 1.75,-1.91797c0.91797,1.16797 1.9375,2.16797 3.0625,2.98047l0.45703,-0.66797c-1.08203,-0.76953 -2.14453,-1.79296 -3.20703,-3.08203l-0.60547,0c-0.97656,1.1875 -2.08203,2.25 -3.3125,3.14453l0.48047,0.73047c0.45703,-0.375 0.91797,-0.77343 1.375,-1.1875zm0.83203,8.20703c0.58594,0 0.89844,-0.3125 0.89844,-0.9375l0,-5.60546l-2.83594,0l0,6.625l0.75,0l0,-2.25l1.35547,0l0,1.08593c0,0.25 -0.14453,0.39453 -0.39453,0.39453l-0.54297,-0.01953l0.1875,0.70703l0.58203,0zm-1.1875,-2.83203l0,-1.14843l1.35547,0l0,1.14843l-1.35547,0zm0,-1.8125l0,-1.1875l1.35547,0l0,1.1875l-1.35547,0zm2.79297,-1.5625l0,4.3125l0.6875,0l0,-4.3125l-0.6875,0zm1.3125,6.22657c0.58203,0 0.875,-0.35157 0.875,-1.03907l0,-5.73047l-0.75,0l0,5.54297c0,0.33203 -0.125,0.51953 -0.39453,0.51953c-0.29297,0 -0.60547,-0.01953 -0.91797,-0.0625l0.16797,0.76954l1.01953,0zm0,0"/>
   <path id="svg_98" fill="rgb(0%,0%,0%)" fill-rule="nonzero" d="m253.24898,138.91406c-0.76953,3.1875 -2.4375,5.64453 -5.01953,7.3125l0.51953,0.75c2.51953,-1.64843 4.1875,-4 4.98047,-7.0625c0.0625,0.14453 0.10156,0.3125 0.1875,0.51953c1.22656,3.16797 2.8125,5.35547 4.76953,6.51954l0.54297,-0.6875c-1.91797,-1.1875 -3.41797,-3.22657 -4.54297,-6.08204c-0.73047,-1.95703 -1.64453,-3.3125 -2.70703,-4.0625l-0.71094,0.45704c0.75,0.5625 1.41797,1.33593 1.98047,2.33593zm0,0"/>
   <path id="svg_99" fill="rgb(69.803923%,85.09804%,100%)" fill-rule="nonzero" d="m195.21773,25.86328l105.10547,0l0,-25.19531l-105.10547,0l0,25.19531zm0,0"/>
   <path id="svg_100" stroke-miterlimit="10" stroke="rgb(0%,0%,0%)" stroke-linejoin="round" stroke-linecap="round" fill="none" d="m195.21777,0.66807l105.10545,0l0,25.1953l-105.10545,0l0,-25.1953zm0,0"/>
   <path id="svg_101" fill="rgb(0%,0%,0%)" fill-rule="nonzero" d="m220.95991,8.32813l-0.60546,0.5625c0.875,0.66796 1.5625,1.29296 2.0625,1.89843l0.625,-0.60547c-0.5625,-0.60546 -1.26954,-1.23046 -2.08204,-1.85546zm7.01954,10.58593l2.70703,0l0.21093,-0.85547c-0.3125,0.01954 -0.75,0.01954 -1.33593,0.04297c-0.58203,0.01953 -1.16407,0.01953 -1.70703,0.01953c-0.95704,0 -1.75,0 -2.375,-0.01953c-0.73047,-0.02343 -1.26954,-0.125 -1.64454,-0.29297c-0.33593,-0.14453 -0.64843,-0.39453 -0.9375,-0.75c-0.10546,-0.125 -0.21093,-0.20703 -0.3125,-0.26953l0,-4.5l-2.5,0l0,0.78907l1.70704,0l0,3.64843c-0.5,0.22657 -1.0625,0.83203 -1.6875,1.85157l0.64453,0.58593c0.64843,-1.10547 1.14843,-1.66797 1.41797,-1.66797c0.14453,0 0.3125,0.10547 0.48046,0.3125c0.375,0.41797 0.78907,0.73047 1.26954,0.875c0.48046,0.125 1.125,0.20704 1.89453,0.20704c0.77343,0.02343 1.5,0.02343 2.16797,0.02343zm-2.16797,-9.4375l-0.51953,0.51953c0.58203,0.3125 1.125,0.625 1.58203,0.95704l-3,0l0,6.375l0.8125,0l0,-2.10157l2,0l0,2.0625l0.79297,0l0,-2.0625l2.01953,0l0,0.91407c0,0.25 -0.14453,0.39843 -0.41407,0.39843l-0.96093,-0.04297l0.1875,0.75l1,0c0.66797,0 1,-0.3125 1,-0.9375l0,-5.35546l-2.375,0l-0.1875,-0.16407c0.83593,-0.46093 1.625,-1 2.33593,-1.60547l0,-0.625l-6.48046,0l0,0.73047l5.33203,0c-0.53907,0.39453 -1.10157,0.76953 -1.72657,1.08203c-0.41796,-0.29296 -0.875,-0.60546 -1.39843,-0.89453zm-1.125,4l2,0l0,1.03907l-2,0l0,-1.03907zm2.79297,0l2.01953,0l0,1.03907l-2.01953,0l0,-1.03907zm2.01953,-0.73047l-2.01953,0l0,-1.08203l2.01953,0l0,1.08203zm-2.8125,0l-2,0l0,-1.08203l2,0l0,1.08203zm0,0"/>
   <path id="svg_102" fill="rgb(0%,0%,0%)" fill-rule="nonzero" d="m235.43648,9.45313l0,0.8125l3,0c-0.08203,0.3125 -0.16407,0.64843 -0.3125,0.98046l-1.91407,0l0,5.76954l5.6875,0l0,-5.76954l-2.85546,0c0.125,-0.3125 0.23046,-0.64453 0.3125,-0.98046l3.35546,0l0,-0.8125l-2.02343,0c0.23047,-0.3125 0.4375,-0.66407 0.64843,-1.0625l-0.83593,-0.28907c-0.20703,0.47657 -0.47657,0.9375 -0.76953,1.35157l-1.41797,0c-0.20703,-0.5 -0.45703,-0.95704 -0.72657,-1.33204l-0.8125,0.29297c0.25,0.33203 0.45704,0.66407 0.64454,1.03907l-1.98047,0zm5.64843,6.79296l-4.0625,0l0,-0.98046l4.0625,0l0,0.98046zm-4.0625,-1.6875l0,-0.91796l4.0625,0l0,0.91796l-4.0625,0zm0,-1.60546l0,-0.95704l4.0625,0l0,0.95704l-4.0625,0zm-4.0625,-4.625l-0.60546,0.5625c0.875,0.66796 1.5625,1.29296 2.0625,1.89843l0.625,-0.60547c-0.5625,-0.60546 -1.26954,-1.23046 -2.08204,-1.85546zm6.97657,10.58593l2.75,0l0.21093,-0.85547c-0.3125,0.01954 -0.77343,0.01954 -1.33593,0.04297c-0.60157,0.01953 -1.16407,0.01953 -1.72657,0.01953c-0.9375,0 -1.73046,0 -2.35546,-0.01953c-0.70704,-0.02343 -1.25,-0.125 -1.60547,-0.29297c-0.33203,-0.14453 -0.64453,-0.39453 -0.9375,-0.75c-0.08203,-0.10546 -0.1875,-0.20703 -0.28907,-0.26953l0,-4.5l-2.5625,0l0,0.78907l1.76954,0l0,3.64843c-0.5,0.20703 -1.0625,0.8125 -1.73047,1.85157l0.64843,0.5625c0.6875,-1.10157 1.16407,-1.64454 1.45704,-1.64454c0.14453,0 0.29296,0.10547 0.45703,0.3125c0.35547,0.41797 0.79297,0.73047 1.27343,0.875c0.47657,0.125 1.10157,0.20704 1.85157,0.20704c0.77343,0.02343 1.48047,0.02343 2.125,0.02343zm0,0"/>
   <path id="svg_103" fill="rgb(0%,0%,0%)" fill-rule="nonzero" d="m249.12398,8.12109c-1.41407,1.66797 -3.1875,3.0625 -5.3125,4.1875l0.46093,0.83204c2.125,-1.20704 3.85157,-2.60157 5.16407,-4.25c1.41797,1.73046 3.125,3.14843 5.125,4.21093l0.46093,-0.8125c-1.98046,-1.02343 -3.75,-2.39843 -5.27343,-4.16797l-0.625,0zm4.10547,6.16797l-7.58204,0l0,4.83203l0.83204,0l0,-0.73046l5.91796,0l0,0.73046l0.83204,0l0,-4.83203zm-6.75,3.28907l0,-2.47657l5.91796,0l0,2.47657l-5.91796,0zm-0.16797,-5.64454l0,0.83204l6.25,0l0,-0.83204l-6.25,0zm0,0"/>
   <path id="svg_104" fill="rgb(0%,0%,0%)" fill-rule="nonzero" d="m259.08491,7.99609l-0.79296,0.39454c0.39453,0.5625 0.79296,1.23046 1.14453,1.98046l0.77343,-0.39453c-0.35546,-0.71093 -0.73046,-1.375 -1.125,-1.98047zm4,3.23047l0,2.8125l-3.1875,0c0.0625,-0.5 0.08204,-1.04297 0.10157,-1.64843l0,-1.16407l3.08593,0zm0,3.64453l0,4.20704l0.89454,0l0,-4.20704l2.8125,0l0,-0.83203l-2.8125,0l0,-2.8125l2.33203,0l0,-0.83593l-2.6875,0c0.41797,-0.60157 0.79297,-1.28907 1.125,-2.0625l-0.91407,-0.33204c-0.35546,0.85547 -0.73046,1.66797 -1.1875,2.39454l-6.0625,0l0,0.83593l2.53907,0l0,1.16407c-0.01953,0.58593 -0.03907,1.14843 -0.125,1.64843l-2.89453,0l0,0.83203l2.76953,0c-0.10157,0.48047 -0.22657,0.89454 -0.39453,1.26954c-0.41797,0.9375 -1.1875,1.6875 -2.26954,2.23046l0.5,0.79297c1.14454,-0.5625 1.95704,-1.35547 2.45704,-2.375c0.25,-0.54297 0.45703,-1.16797 0.60546,-1.91797l3.3125,0zm0,0"/>
   <path id="svg_105" fill="rgb(0%,0%,0%)" fill-rule="nonzero" d="m271.33491,12.72656l0,0.76953l6.5,0l0,-0.76953l-6.5,0zm-0.85546,1.95703l0,0.79297l2.625,0c-0.83204,1.35157 -1.54297,2.1875 -2.0625,2.5c-0.0625,0.01953 -0.10547,0.0625 -0.1875,0.08203l0.1875,0.73047c2.26953,-0.14843 4.35546,-0.35547 6.25,-0.60547c0.25,0.29297 0.45703,0.60547 0.66796,0.91797l0.6875,-0.48047c-0.52343,-0.76953 -1.29296,-1.6875 -2.27343,-2.73046l-0.64453,0.39843c0.35546,0.41407 0.70703,0.8125 1.04296,1.20703c-1.54296,0.23047 -3.10546,0.39454 -4.6875,0.5c0.5625,-0.5 1.20704,-1.35546 1.9375,-2.51953l4.60157,0l0,-0.79297l-8.14453,0zm6.6875,-5.26953l0,1.39453l-7.0625,0l0,-1.39453l7.0625,0zm-7.0625,2.16407l7.89453,0l0,-2.97657l-8.72657,0l0,3.97657c-0.02343,2.41796 -0.4375,4.375 -1.27343,5.89843l0.625,0.58203c0.98047,-1.8125 1.48047,-3.98046 1.48047,-6.48046l0,-1zm0,0"/>
   <path id="svg_106" stroke-miterlimit="10" stroke="rgb(0%,0%,0%)" stroke-linecap="round" fill="none" d="m267.28808,128.66804l20.4414,-13.19922"/>
   <path id="svg_107" stroke-miterlimit="10" stroke="rgb(0%,0%,0%)" fill="none" d="m292.20994,112.57428l-4.48047,2.89453m-1.08984,-1.68359l5.57031,-1.21095l-3.39843,4.57032"/>
   <path id="svg_108" stroke-miterlimit="10" stroke="rgb(0%,0%,0%)" stroke-linecap="round" fill="none" d="m228.54199,128.66804l-20.07422,-13.15625"/>
   <path id="svg_109" stroke-miterlimit="10" stroke="rgb(0%,0%,0%)" fill="none" d="m204.01074,112.58991l4.45703,2.92188m-1.09375,1.67188l-3.36328,-4.59376l5.5586,1.25"/>
   <path id="svg_110" stroke-miterlimit="10" stroke="rgb(0%,0%,0%)" stroke-linecap="round" fill="none" d="m201.88965,43.33211l20.07421,-13.15624"/>
   <path id="svg_111" stroke-miterlimit="10" stroke="rgb(0%,0%,0%)" fill="none" d="m226.4209,27.25399l-4.45704,2.92188m-1.09375,-1.67188l5.55079,-1.25l-3.36328,4.59375"/>
   <path id="svg_112" stroke-miterlimit="10" stroke="rgb(0%,0%,0%)" stroke-linecap="round" fill="none" d="m294.33884,43.33211l-20.4414,-13.1953"/>
   <path id="svg_113" stroke-miterlimit="10" stroke="rgb(0%,0%,0%)" fill="none" d="m269.41308,27.23837l4.48437,2.89844m-1.08984,1.67577l-3.39453,-4.57421l5.5664,1.21484"/>
   <path id="svg_114" stroke-miterlimit="10" stroke="rgb(0%,0%,0%)" stroke-linecap="round" fill="none" d="m300.32323,143.01959l155.32808,0c3.6836,0 6.66797,-2.98437 6.66797,-6.66407l0,-17.28906"/>
   <path id="svg_115" stroke-miterlimit="10" stroke="rgb(0%,0%,0%)" fill="none" d="m462.31928,113.73444l0,5.33203m-2,0l2,-5.33203l2,5.33203"/>
   <path id="svg_116" stroke-miterlimit="10" stroke="rgb(0%,0%,0%)" stroke-linecap="round" fill="none" d="m195.21777,141.26569l-0.11719,0c-0.40233,0 -0.72656,0.32812 -0.72656,0.73047c0,0.39844 -0.32812,0.72265 -0.72656,0.72265l-130.42966,0c-3.67968,0 -6.66405,-2.98437 -6.66405,-6.66796l0,-38.3164"/>
   <path id="svg_117" stroke-miterlimit="10" stroke="rgb(0%,0%,0%)" fill="none" d="m56.55375,92.40242l0,5.33203m-2,0l2,-5.33203l2,5.33203"/>
   <path id="svg_118" stroke-miterlimit="10" stroke="rgb(0%,0%,0%)" stroke-linecap="round" fill="none" d="m56.55375,64.66805l0,-44.07812c0,-3.68359 2.98437,-6.66796 6.66405,-6.66796l124.13669,0"/>
   <path id="svg_119" stroke-miterlimit="10" stroke="rgb(0%,0%,0%)" fill="none" d="m192.68653,13.92197l-5.33204,0m0,-2l5.33204,2l-5.33204,2"/>
   <path id="svg_120" stroke-miterlimit="10" stroke="rgb(0%,0%,0%)" stroke-linecap="round" fill="none" d="m462.31928,43.33211l0,-21.0039c0,-3.68359 -2.98437,-6.66796 -6.66797,-6.66796l-147.4648,0"/>
   <path id="svg_121" stroke-miterlimit="10" stroke="rgb(0%,0%,0%)" fill="none" d="m302.85447,15.66025l5.33204,0m0,2l-5.33204,-2l5.33204,-2"/>
  </g>
  <text transform="matrix(0.47835 0 0 0.488466 79.6914 41.4847)" stroke="rgb(0%,0%,0%)" xml:space="preserve" text-anchor="start" font-family="Noto Sans JP" font-size="24" stroke-width="0" id="svg_123" y="82.87572" x="156.63417" fill="#ff7f00">96</text>
  <text transform="matrix(0.545148 0 0 0.56648 29.5255 26.5317)" stroke="rgb(0%,0%,0%)" xml:space="preserve" text-anchor="start" font-family="Noto Sans JP" font-size="24" stroke-width="0" id="svg_124" y="54.70176" x="64.91228" fill="#ff7f00">64</text>
  <text transform="matrix(0.513878 0 0 0.522925 75.818 18.6544)" stroke="rgb(0%,0%,0%)" xml:space="preserve" text-anchor="start" font-family="Noto Sans JP" font-size="24" id="svg_125" y="33.12282" x="155.96491" stroke-width="0" fill="#ff7f00">128</text>
  <text transform="matrix(0.551209 0 0 0.556133 140.621 18.3287)" stroke="rgb(0%,0%,0%)" xml:space="preserve" text-anchor="start" font-family="Noto Sans JP" font-size="24" id="svg_126" y="34.70176" x="313.33334" stroke-width="0" fill="#ff7f00">32</text>
  <text transform="matrix(0.559639 0 0 0.484294 145.546 42.6812)" stroke="rgb(0%,0%,0%)" xml:space="preserve" text-anchor="start" font-family="Noto Sans JP" font-size="24" id="svg_127" y="79.17934" x="313.23216" stroke-width="0" fill="#ff7f00">16</text>
  <text transform="matrix(0.55125 0 0 0.534924 215.242 15.2566)" stroke="rgb(0%,0%,0%)" xml:space="preserve" text-anchor="start" font-family="Noto Sans JP" font-size="24" id="svg_128" y="43.00714" x="462.46332" stroke-width="0" fill="#ff7f00">32</text>
  <text transform="matrix(0.372973 0 0 0.562821 139.117 54.8967)" stroke="rgb(0%,0%,0%)" xml:space="preserve" text-anchor="start" font-family="Noto Sans JP" font-size="24" id="svg_129" y="126.51089" x="228.90979" stroke-width="0" fill="#ff7f00">192x28x28</text>
 </g>
</svg>